CodaCaption-Light.ufo
<glyph name="percent" format="1">
  <advance width="2163"/>
  <unicode hex="0025"/>
  <outline>
    <contour>
      <point x="821" y="10" type="line"/>
      <point x="959" y="10" type="line"/>
      <point x="1341" y="1559" type="line"/>
      <point x="1200" y="1559" type="line"/>
    </contour>
    <contour>
      <point x="1699" y="175" type="curve" smooth="yes"/>
      <point x="1964" y="175"/>
      <point x="2036" y="253"/>
      <point x="2036" y="489" type="curve" smooth="yes"/>
      <point x="2036" y="594"/>
      <point x="2035" y="602"/>
      <point x="2032" y="678" type="curve" smooth="yes"/>
      <point x="2018" y="922"/>
      <point x="1982" y="1000"/>
      <point x="1699" y="1000" type="curve" smooth="yes"/>
      <point x="1439" y="1000"/>
      <point x="1366" y="927"/>
      <point x="1366" y="685" type="curve" smooth="yes"/>
      <point x="1366" y="579"/>
      <point x="1366" y="571"/>
      <point x="1369" y="495" type="curve" smooth="yes"/>
      <point x="1383" y="249"/>
      <point x="1415" y="175"/>
    </contour>
    <contour>
      <point x="1679" y="287" type="curve" smooth="yes"/>
      <point x="1486" y="287"/>
      <point x="1477" y="304"/>
      <point x="1477" y="555" type="curve" smooth="yes"/>
      <point x="1477" y="604"/>
      <point x="1478" y="538"/>
      <point x="1478" y="608" type="curve" smooth="yes"/>
      <point x="1478" y="887"/>
      <point x="1490" y="888"/>
      <point x="1698" y="888" type="curve" smooth="yes"/>
      <point x="1915" y="888"/>
      <point x="1916" y="885"/>
      <point x="1916" y="611" type="curve" smooth="yes"/>
      <point x="1916" y="603" type="line"/>
      <point x="1916" y="550" type="line" smooth="yes"/>
      <point x="1916" y="305"/>
      <point x="1906" y="287"/>
    </contour>
    <contour>
      <point x="466" y="576" type="curve" smooth="yes"/>
      <point x="731" y="576"/>
      <point x="803" y="657"/>
      <point x="803" y="891" type="curve" smooth="yes"/>
      <point x="803" y="1001"/>
      <point x="802" y="1012"/>
      <point x="798" y="1090" type="curve" smooth="yes"/>
      <point x="783" y="1326"/>
      <point x="746" y="1402"/>
      <point x="466" y="1402" type="curve" smooth="yes"/>
      <point x="206" y="1402"/>
      <point x="133" y="1330"/>
      <point x="133" y="1087" type="curve" smooth="yes"/>
      <point x="133" y="979"/>
      <point x="133" y="971"/>
      <point x="137" y="895" type="curve" smooth="yes"/>
      <point x="150" y="653"/>
      <point x="184" y="576"/>
    </contour>
    <contour>
      <point x="446" y="689" type="curve" smooth="yes"/>
      <point x="253" y="689"/>
      <point x="244" y="706"/>
      <point x="244" y="957" type="curve" smooth="yes"/>
      <point x="244" y="1006"/>
      <point x="245" y="940"/>
      <point x="245" y="1010" type="curve" smooth="yes"/>
      <point x="245" y="1289"/>
      <point x="257" y="1291"/>
      <point x="465" y="1291" type="curve" smooth="yes"/>
      <point x="680" y="1291"/>
      <point x="682" y="1287"/>
      <point x="682" y="1020" type="curve" smooth="yes"/>
      <point x="682" y="1005" type="line"/>
      <point x="682" y="952" type="line" smooth="yes"/>
      <point x="682" y="708"/>
      <point x="673" y="689"/>
    </contour>
  </outline>
</glyph>
<glyph name="ampersand" format="1">
  <advance width="1443"/>
  <unicode hex="0026"/>
  <outline>
    <contour>
      <point x="655" y="114" type="curve" smooth="yes"/>
      <point x="351" y="114"/>
      <point x="287" y="209"/>
      <point x="287" y="414" type="curve" smooth="yes"/>
      <point x="287" y="691"/>
      <point x="290" y="727"/>
      <point x="459" y="727" type="curve" smooth="yes"/>
      <point x="1042" y="727" type="line"/>
      <point x="1042" y="383" type="line" smooth="yes"/>
      <point x="1042" y="204"/>
      <point x="1023" y="114"/>
    </contour>
    <contour>
      <point x="659" y="-23" type="curve" smooth="yes"/>
      <point x="1079" y="-23"/>
      <point x="1175" y="83"/>
      <point x="1174" y="334" type="curve" smooth="yes"/>
      <point x="1173" y="725" type="line"/>
      <point x="1305" y="727" type="line"/>
      <point x="1305" y="836" type="line"/>
      <point x="1174" y="836" type="line"/>
      <point x="1174" y="938" type="line"/>
      <point x="1042" y="938" type="line"/>
      <point x="1042" y="836" type="line"/>
      <point x="508" y="836" type="line" smooth="yes"/>
      <point x="414" y="836"/>
      <point x="368" y="884"/>
      <point x="361" y="1128" type="curve"/>
      <point x="369" y="1298"/>
      <point x="446" y="1352"/>
      <point x="694" y="1352" type="curve" smooth="yes"/>
      <point x="861" y="1352"/>
      <point x="942" y="1347"/>
      <point x="993" y="1318" type="curve" smooth="yes"/>
      <point x="1045" y="1288"/>
      <point x="1051" y="1274"/>
      <point x="1057" y="1177" type="curve"/>
      <point x="1154" y="1192" type="line"/>
      <point x="1154" y="1311" type="line" smooth="yes"/>
      <point x="1154" y="1479"/>
      <point x="976" y="1500"/>
      <point x="692" y="1500" type="curve" smooth="yes"/>
      <point x="315" y="1500"/>
      <point x="220" y="1397"/>
      <point x="220" y="1135" type="curve" smooth="yes"/>
      <point x="220" y="1046"/>
      <point x="235" y="944"/>
      <point x="283" y="876" type="curve" smooth="yes"/>
      <point x="302" y="853"/>
      <point x="329" y="837"/>
      <point x="353" y="825" type="curve"/>
      <point x="353" y="823" type="line"/>
      <point x="321" y="816"/>
      <point x="307" y="807"/>
      <point x="281" y="787" type="curve" smooth="yes"/>
      <point x="197" y="715"/>
      <point x="148" y="591"/>
      <point x="148" y="361" type="curve" smooth="yes"/>
      <point x="148" y="120"/>
      <point x="293" y="-23"/>
    </contour>
  </outline>
</glyph>
<glyph name="quotesingle" format="1">
  <advance width="374"/>
  <unicode hex="0027"/>
  <outline>
    <contour>
      <point x="197" y="929" type="curve" smooth="yes"/>
      <point x="197" y="929"/>
      <point x="261" y="1284"/>
      <point x="261" y="1361" type="curve" smooth="yes"/>
      <point x="261" y="1435"/>
      <point x="240" y="1470"/>
      <point x="190" y="1470" type="curve" smooth="yes"/>
      <point x="120" y="1470"/>
      <point x="117" y="1434"/>
      <point x="117" y="1342" type="curve" smooth="yes"/>
      <point x="117" y="1273"/>
      <point x="182" y="933"/>
      <point x="184" y="933" type="curve" smooth="yes"/>
      <point x="185" y="933"/>
      <point x="180" y="941"/>
      <point x="190" y="946" type="curve"/>
      <point x="189" y="945"/>
      <point x="198" y="937"/>
    </contour>
  </outline>
</glyph>
<glyph name="hyphen" format="1">
  <advance width="784"/>
  <unicode hex="002D"/>
  <outline>
    <contour>
      <point x="387" y="600" type="move" name="_mid"/>
    </contour>
    <contour>
      <point x="117" y="545" type="line"/>
      <point x="665" y="545" type="line"/>
      <point x="665" y="649" type="line"/>
      <point x="117" y="649" type="line"/>
    </contour>
  </outline>
</glyph>
<glyph name="zero" format="1">
  <advance width="1272"/>
  <unicode hex="0030"/>
  <outline>
    <contour>
      <point x="636" y="-20" type="curve" smooth="yes"/>
      <point x="1090" y="-20"/>
      <point x="1118" y="210"/>
      <point x="1118" y="666" type="curve" smooth="yes"/>
      <point x="1118" y="743" type="line" smooth="yes"/>
      <point x="1118" y="1244"/>
      <point x="1094" y="1485"/>
      <point x="636" y="1485" type="curve" smooth="yes"/>
      <point x="190" y="1485"/>
      <point x="156" y="1261"/>
      <point x="154" y="792" type="curve" smooth="yes"/>
      <point x="154" y="703" type="line" smooth="yes"/>
      <point x="154" y="223"/>
      <point x="167" y="-20"/>
    </contour>
    <contour>
      <point x="636" y="107" type="curve" smooth="yes"/>
      <point x="400" y="107"/>
      <point x="307" y="168"/>
      <point x="299" y="308" type="curve" smooth="yes"/>
      <point x="289" y="481"/>
      <point x="286" y="543"/>
      <point x="286" y="732" type="curve" smooth="yes"/>
      <point x="286" y="917"/>
      <point x="290" y="972"/>
      <point x="300" y="1146" type="curve" smooth="yes"/>
      <point x="308" y="1301"/>
      <point x="410" y="1365"/>
      <point x="636" y="1365" type="curve" smooth="yes"/>
      <point x="861" y="1365"/>
      <point x="963" y="1301"/>
      <point x="972" y="1146" type="curve" smooth="yes"/>
      <point x="981" y="972"/>
      <point x="986" y="917"/>
      <point x="986" y="732" type="curve" smooth="yes"/>
      <point x="986" y="543"/>
      <point x="984" y="481"/>
      <point x="973" y="308" type="curve" smooth="yes"/>
      <point x="965" y="168"/>
      <point x="872" y="107"/>
    </contour>
  </outline>
</glyph>
<glyph name="three" format="1">
  <advance width="1256"/>
  <unicode hex="0033"/>
  <outline>
    <contour>
      <point x="582" y="-20" type="curve" smooth="yes"/>
      <point x="888" y="-20"/>
      <point x="1055" y="17"/>
      <point x="1055" y="382" type="curve" smooth="yes"/>
      <point x="1055" y="719"/>
      <point x="965" y="734"/>
      <point x="888" y="757" type="curve"/>
      <point x="957" y="773"/>
      <point x="1045" y="773"/>
      <point x="1045" y="1147" type="curve" smooth="yes"/>
      <point x="1045" y="1391"/>
      <point x="913" y="1485"/>
      <point x="621" y="1485" type="curve" smooth="yes"/>
      <point x="241" y="1485"/>
      <point x="158" y="1415"/>
      <point x="159" y="1229" type="curve"/>
      <point x="159" y="1185" type="line"/>
      <point x="270" y="1177" type="line"/>
      <point x="270" y="1325"/>
      <point x="282" y="1303"/>
      <point x="300" y="1324" type="curve" smooth="yes"/>
      <point x="340" y="1368"/>
      <point x="462" y="1378"/>
      <point x="621" y="1378" type="curve" smooth="yes"/>
      <point x="898" y="1378"/>
      <point x="913" y="1320"/>
      <point x="913" y="1096" type="curve" smooth="yes"/>
      <point x="913" y="842"/>
      <point x="909" y="819"/>
      <point x="848" y="819" type="curve" smooth="yes"/>
      <point x="476" y="819" type="line"/>
      <point x="485" y="696" type="line"/>
      <point x="856" y="693" type="line" smooth="yes"/>
      <point x="866" y="693"/>
      <point x="875" y="694"/>
      <point x="882" y="694" type="curve" smooth="yes"/>
      <point x="913" y="694"/>
      <point x="921" y="673"/>
      <point x="921" y="452" type="curve" smooth="yes"/>
      <point x="921" y="159"/>
      <point x="913" y="87"/>
      <point x="587" y="87" type="curve" smooth="yes"/>
      <point x="421" y="87"/>
      <point x="319" y="95"/>
      <point x="281" y="149" type="curve" smooth="yes"/>
      <point x="252" y="189"/>
      <point x="251" y="172"/>
      <point x="251" y="266" type="curve" smooth="yes"/>
      <point x="251" y="286" type="line"/>
      <point x="139" y="274" type="line"/>
      <point x="138" y="202" type="line" smooth="yes"/>
      <point x="138" y="196" type="line" smooth="yes"/>
      <point x="138" y="5"/>
      <point x="323" y="-20"/>
    </contour>
  </outline>
</glyph>
<glyph name="four" format="1">
  <advance width="1256"/>
  <unicode hex="0034"/>
  <outline>
    <contour>
      <point x="705" y="1466" type="line"/>
      <point x="147" y="512" type="line"/>
      <point x="147" y="423" type="line"/>
      <point x="813" y="423" type="line"/>
      <point x="813" y="0" type="line"/>
      <point x="953" y="0" type="line"/>
      <point x="953" y="1035" type="line"/>
      <point x="813" y="1035" type="line"/>
      <point x="813" y="502" type="line"/>
      <point x="286" y="502" type="line"/>
      <point x="397" y="726" type="line"/>
      <point x="847" y="1466" type="line"/>
    </contour>
  </outline>
</glyph>
<glyph name="seven" format="1">
  <advance width="1256"/>
  <unicode hex="0037"/>
  <outline>
    <contour>
      <point x="413" y="0" type="line"/>
      <point x="554" y="0" type="line"/>
      <point x="1081" y="1325" type="line"/>
      <point x="1081" y="1466" type="line"/>
      <point x="213" y="1466" type="line"/>
      <point x="213" y="1347" type="line"/>
      <point x="952" y="1347" type="line"/>
    </contour>
  </outline>
</glyph>
<glyph name="B" format="1">
  <advance width="1330"/>
  <unicode hex="0042"/>
  <outline>
    <contour>
      <point x="682" y="1475" type="move" name="top"/>
    </contour>
    <contour>
      <point x="338" y="839" type="line"/>
      <point x="338" y="1333" type="line"/>
      <point x="633" y="1333" type="line" smooth="yes"/>
      <point x="988" y="1333"/>
      <point x="995" y="1322"/>
      <point x="995" y="1138" type="curve" smooth="yes"/>
      <point x="995" y="1113" type="line" smooth="yes"/>
      <point x="995" y="998" type="line" smooth="yes"/>
      <point x="995" y="894"/>
      <point x="961" y="839"/>
      <point x="555" y="839" type="curve" smooth="yes"/>
    </contour>
    <contour>
      <point x="338" y="132" type="line"/>
      <point x="338" y="720" type="line"/>
      <point x="594" y="720" type="line" smooth="yes"/>
      <point x="1084" y="720"/>
      <point x="1052" y="685"/>
      <point x="1056" y="410" type="curve"/>
      <point x="1058" y="369" type="line"/>
      <point x="1058" y="189"/>
      <point x="1022" y="132"/>
      <point x="762" y="132" type="curve" smooth="yes"/>
    </contour>
    <contour>
      <point x="193" y="0" type="line"/>
      <point x="684" y="0" type="line" smooth="yes"/>
      <point x="1122" y="0"/>
      <point x="1196" y="10"/>
      <point x="1196" y="422" type="curve" smooth="yes"/>
      <point x="1196" y="618"/>
      <point x="1171" y="768"/>
      <point x="950" y="790" type="curve"/>
      <point x="1096" y="822"/>
      <point x="1142" y="871"/>
      <point x="1142" y="1078" type="curve"/>
      <point x="1141" y="1205" type="line" smooth="yes"/>
      <point x="1140" y="1416"/>
      <point x="1007" y="1466"/>
      <point x="720" y="1466" type="curve" smooth="yes"/>
      <point x="193" y="1466" type="line"/>
    </contour>
  </outline>
</glyph>
<glyph name="F" format="1">
  <advance width="1041"/>
  <unicode hex="0046"/>
  <outline>
    <contour>
      <point x="537" y="0" type="move" name="bot"/>
    </contour>
    <contour>
      <point x="594" y="1475" type="move" name="top"/>
    </contour>
    <contour>
      <point x="193" y="1466" type="line"/>
      <point x="193" y="0" type="line"/>
      <point x="340" y="0" type="line"/>
      <point x="340" y="684" type="line"/>
      <point x="893" y="684" type="line"/>
      <point x="893" y="826" type="line"/>
      <point x="340" y="826" type="line"/>
      <point x="340" y="1334" type="line"/>
      <point x="992" y="1334" type="line"/>
      <point x="971" y="1466" type="line"/>
    </contour>
  </outline>
</glyph>
<glyph name="G" format="1">
  <advance width="1333"/>
  <unicode hex="0047"/>
  <outline>
    <contour>
      <point x="665" y="0" type="move" name="bot"/>
    </contour>
    <contour>
      <point x="665" y="1475" type="move" name="top"/>
    </contour>
    <contour>
      <point x="176" y="1208" type="curve"/>
      <point x="146" y="1068"/>
      <point x="140" y="976"/>
      <point x="140" y="733" type="curve" smooth="yes"/>
      <point x="140" y="507"/>
      <point x="144" y="430"/>
      <point x="163" y="293" type="curve"/>
      <point x="210" y="63"/>
      <point x="315" y="-20"/>
      <point x="640" y="-20" type="curve" smooth="yes"/>
      <point x="944" y="-20"/>
      <point x="1117" y="31"/>
      <point x="1205" y="111" type="curve"/>
      <point x="1205" y="739" type="line"/>
      <point x="708" y="739" type="line"/>
      <point x="727" y="593" type="line"/>
      <point x="1063" y="593" type="line"/>
      <point x="1063" y="166" type="line"/>
      <point x="1035" y="128"/>
      <point x="908" y="109"/>
      <point x="651" y="109" type="curve" smooth="yes"/>
      <point x="284" y="109"/>
      <point x="308" y="155"/>
      <point x="298" y="382" type="curve" smooth="yes"/>
      <point x="292" y="550"/>
      <point x="288" y="589"/>
      <point x="288" y="766" type="curve" smooth="yes"/>
      <point x="288" y="937"/>
      <point x="288" y="986"/>
      <point x="298" y="1155" type="curve" smooth="yes"/>
      <point x="308" y="1311"/>
      <point x="360" y="1361"/>
      <point x="666" y="1361" type="curve" smooth="yes"/>
      <point x="950" y="1361"/>
      <point x="1040" y="1347"/>
      <point x="1044" y="1237" type="curve"/>
      <point x="1056" y="1082" type="line"/>
      <point x="1176" y="1119" type="line"/>
      <point x="1177" y="1139"/>
      <point x="1178" y="1107"/>
      <point x="1178" y="1128" type="curve" smooth="yes"/>
      <point x="1178" y="1483"/>
      <point x="975" y="1485"/>
      <point x="707" y="1485" type="curve" smooth="yes"/>
      <point x="698" y="1485" type="line" smooth="yes"/>
      <point x="337" y="1485"/>
      <point x="235" y="1404"/>
    </contour>
  </outline>
</glyph>
<glyph name="I" format="1">
  <advance width="532"/>
  <unicode hex="0049"/>
  <outline>
    <contour>
      <point x="267" y="0" type="move" name="bot"/>
    </contour>
    <contour>
      <point x="272" y="0" type="move" name="ogonek"/>
    </contour>
    <contour>
      <point x="267" y="1475" type="move" name="top"/>
    </contour>
    <contour>
      <point x="193" y="1466" type="line"/>
      <point x="193" y="0" type="line"/>
      <point x="339" y="0" type="line"/>
      <point x="339" y="1466" type="line"/>
    </contour>
  </outline>
</glyph>
<glyph name="N" format="1">
  <advance width="1445"/>
  <unicode hex="004E"/>
  <outline>
    <contour>
      <point x="723" y="0" type="move" name="bot"/>
    </contour>
    <contour>
      <point x="746" y="1475" type="move" name="top"/>
    </contour>
    <contour>
      <point x="1111" y="1466" type="line"/>
      <point x="1111" y="173" type="line"/>
      <point x="355" y="1466" type="line"/>
      <point x="193" y="1466" type="line"/>
      <point x="193" y="0" type="line"/>
      <point x="334" y="0" type="line"/>
      <point x="334" y="1284" type="line"/>
      <point x="1086" y="0" type="line"/>
      <point x="1251" y="0" type="line"/>
      <point x="1251" y="1466" type="line"/>
    </contour>
  </outline>
</glyph>
<glyph name="R" format="1">
  <advance width="1332"/>
  <unicode hex="0052"/>
  <outline>
    <contour>
      <point x="680" y="0" type="move" name="bot"/>
    </contour>
    <contour>
      <point x="680" y="1475" type="move" name="top"/>
    </contour>
    <contour>
      <point x="339" y="781" type="line"/>
      <point x="339" y="1332" type="line"/>
      <point x="699" y="1332" type="line"/>
      <point x="706" y="1332" type="line" smooth="yes"/>
      <point x="1018" y="1332"/>
      <point x="1034" y="1331"/>
      <point x="1034" y="1076" type="curve" smooth="yes"/>
      <point x="1034" y="797"/>
      <point x="1001" y="781"/>
      <point x="713" y="781" type="curve" smooth="yes"/>
    </contour>
    <contour>
      <point x="193" y="0" type="line"/>
      <point x="339" y="0" type="line"/>
      <point x="339" y="639" type="line"/>
      <point x="667" y="639" type="line" smooth="yes"/>
      <point x="838" y="639"/>
      <point x="953" y="609"/>
      <point x="981" y="406" type="curve"/>
      <point x="1051" y="0" type="line"/>
      <point x="1214" y="0" type="line"/>
      <point x="1126" y="471" type="line"/>
      <point x="1099" y="600"/>
      <point x="1051" y="672"/>
      <point x="945" y="696" type="curve"/>
      <point x="1081" y="723"/>
      <point x="1180" y="786"/>
      <point x="1180" y="1067" type="curve" smooth="yes"/>
      <point x="1180" y="1461"/>
      <point x="986" y="1466"/>
      <point x="584" y="1466" type="curve" smooth="yes"/>
      <point x="193" y="1466" type="line"/>
    </contour>
  </outline>
</glyph>
<glyph name="T" format="1">
  <advance width="1047"/>
  <unicode hex="0054"/>
  <outline>
    <contour>
      <point x="522" y="905" type="move" name="mid"/>
    </contour>
    <contour>
      <point x="524" y="0" type="move" name="bot"/>
    </contour>
    <contour>
      <point x="524" y="1475" type="move" name="top"/>
    </contour>
    <contour>
      <point x="61" y="1466" type="line"/>
      <point x="61" y="1338" type="line"/>
      <point x="446" y="1338" type="line"/>
      <point x="446" y="0" type="line"/>
      <point x="593" y="0" type="line"/>
      <point x="593" y="1338" type="line"/>
      <point x="986" y="1338" type="line"/>
      <point x="986" y="1466" type="line"/>
    </contour>
  </outline>
</glyph>
<glyph name="Y" format="1">
  <advance width="1171"/>
  <unicode hex="0059"/>
  <outline>
    <contour>
      <point x="600" y="0" type="move" name="bot"/>
    </contour>
    <contour>
      <point x="600" y="1475" type="move" name="top"/>
    </contour>
    <contour>
      <point x="973" y="1466" type="line"/>
      <point x="588" y="676" type="line"/>
      <point x="587" y="676" type="line"/>
      <point x="214" y="1466" type="line"/>
      <point x="52" y="1466" type="line"/>
      <point x="506" y="513" type="line"/>
      <point x="506" y="0" type="line"/>
      <point x="652" y="0" type="line"/>
      <point x="652" y="515" type="line"/>
      <point x="1128" y="1466" type="line"/>
    </contour>
  </outline>
</glyph>
<glyph name="underscore" format="1">
  <advance width="842"/>
  <unicode hex="005F"/>
  <outline>
    <contour>
      <point x="6" y="-104" type="line"/>
      <point x="6" y="-200" type="line"/>
      <point x="836" y="-200" type="line"/>
      <point x="836" y="-104" type="line"/>
    </contour>
  </outline>
</glyph>
<glyph name="grave" format="1">
  <advance width="594"/>
  <unicode hex="0060"/>
  <outline>
    <contour>
      <point x="282" y="1069" type="move" name="_top"/>
    </contour>
    <contour>
      <point x="53" y="1468" type="curve" smooth="yes"/>
      <point x="53" y="1435"/>
      <point x="73" y="1397"/>
      <point x="117" y="1382" type="curve"/>
      <point x="130" y="1382"/>
      <point x="478" y="1243"/>
      <point x="486" y="1243" type="curve" smooth="yes"/>
      <point x="485" y="1244" type="line"/>
      <point x="488" y="1244"/>
      <point x="491" y="1245"/>
      <point x="492" y="1245" type="curve"/>
      <point x="459" y="1273"/>
      <point x="250" y="1493"/>
      <point x="224" y="1516" type="curve" smooth="yes"/>
      <point x="203" y="1533"/>
      <point x="177" y="1550"/>
      <point x="146" y="1550" type="curve" smooth="yes"/>
      <point x="85" y="1550"/>
      <point x="53" y="1509"/>
    </contour>
    <contour>
      <point x="494" y="1247" type="curve" smooth="yes"/>
      <point x="495" y="1246"/>
      <point x="496" y="1243"/>
      <point x="496" y="1242" type="curve" smooth="yes"/>
      <point x="496" y="1241"/>
      <point x="495" y="1242"/>
      <point x="492" y="1245" type="curve" smooth="yes"/>
      <point x="493" y="1246"/>
      <point x="493" y="1247"/>
    </contour>
  </outline>
</glyph>
<glyph name="c" format="1">
  <advance width="1028"/>
  <unicode hex="0063"/>
  <outline>
    <contour>
      <point x="522" y="0" type="move" name="bot"/>
    </contour>
    <contour>
      <point x="503" y="1069" type="move" name="top"/>
    </contour>
    <contour>
      <point x="136" y="569" type="curve" smooth="yes"/>
      <point x="136" y="522" type="line" smooth="yes"/>
      <point x="136" y="136"/>
      <point x="144" y="-20"/>
      <point x="550" y="-20" type="curve" smooth="yes"/>
      <point x="870" y="-20"/>
      <point x="902" y="50"/>
      <point x="925" y="228" type="curve" smooth="yes"/>
      <point x="934" y="297" type="line"/>
      <point x="827" y="316" type="line"/>
      <point x="813" y="229" type="line"/>
      <point x="804" y="117"/>
      <point x="776" y="99"/>
      <point x="540" y="99" type="curve" smooth="yes"/>
      <point x="275" y="99"/>
      <point x="269" y="150"/>
      <point x="269" y="446" type="curve" smooth="yes"/>
      <point x="269" y="493" type="line" smooth="yes"/>
      <point x="269" y="630" type="line"/>
      <point x="269" y="635" type="line" smooth="yes"/>
      <point x="269" y="883"/>
      <point x="270" y="949"/>
      <point x="561" y="949" type="curve" smooth="yes"/>
      <point x="807" y="949"/>
      <point x="793" y="906"/>
      <point x="805" y="820" type="curve"/>
      <point x="829" y="734" type="line"/>
      <point x="934" y="765" type="line"/>
      <point x="916" y="871" type="line"/>
      <point x="887" y="1025"/>
      <point x="856" y="1070"/>
      <point x="561" y="1070" type="curve" smooth="yes"/>
      <point x="139" y="1070"/>
      <point x="136" y="950"/>
    </contour>
  </outline>
</glyph>
<glyph name="d" format="1">
  <advance width="1135"/>
  <unicode hex="0064"/>
  <outline>
    <contour>
      <point x="876" y="1298" type="move" name="mid"/>
    </contour>
    <contour>
      <point x="902" y="1069" type="move" name="caron.alt"/>
    </contour>
    <contour>
      <point x="607" y="1049" type="move" name="top"/>
    </contour>
    <contour>
      <point x="552" y="98" type="curve" smooth="yes"/>
      <point x="268" y="98"/>
      <point x="281" y="192"/>
      <point x="279" y="440" type="curve" smooth="yes"/>
      <point x="278" y="614" type="line" smooth="yes"/>
      <point x="278" y="627" type="line" smooth="yes"/>
      <point x="278" y="893"/>
      <point x="309" y="950"/>
      <point x="552" y="950" type="curve"/>
      <point x="778" y="950"/>
      <point x="833" y="906"/>
      <point x="833" y="763" type="curve" smooth="yes"/>
      <point x="833" y="268" type="line" smooth="yes"/>
      <point x="833" y="139"/>
      <point x="760" y="98"/>
    </contour>
    <contour>
      <point x="833" y="1500" type="line"/>
      <point x="833" y="917" type="line"/>
      <point x="795" y="1021"/>
      <point x="709" y="1070"/>
      <point x="533" y="1070" type="curve" smooth="yes"/>
      <point x="180" y="1070"/>
      <point x="139" y="914"/>
      <point x="136" y="531" type="curve" smooth="yes"/>
      <point x="136" y="182"/>
      <point x="153" y="-20"/>
      <point x="512" y="-20" type="curve" smooth="yes"/>
      <point x="690" y="-20"/>
      <point x="792" y="41"/>
      <point x="828" y="144" type="curve"/>
      <point x="845" y="0" type="line"/>
      <point x="977" y="0" type="line"/>
      <point x="977" y="1500" type="line"/>
    </contour>
  </outline>
</glyph>
<glyph name="g" format="1">
  <advance width="1106"/>
  <unicode hex="0067"/>
  <outline>
    <contour>
      <point x="562" y="0" type="move" name="bot"/>
    </contour>
    <contour>
      <point x="539" y="1069" type="move" name="top"/>
    </contour>
    <contour>
      <point x="276" y="393" type="curve" smooth="yes"/>
      <point x="276" y="480"/>
      <point x="273" y="507"/>
      <point x="273" y="547" type="curve" smooth="yes"/>
      <point x="273" y="654" type="line" smooth="yes"/>
      <point x="273" y="921"/>
      <point x="293" y="954"/>
      <point x="544" y="954" type="curve" smooth="yes"/>
      <point x="767" y="954"/>
      <point x="822" y="905"/>
      <point x="822" y="771" type="curve" smooth="yes"/>
      <point x="821" y="226" type="line" smooth="yes"/>
      <point x="821" y="138"/>
      <point x="686" y="117"/>
      <point x="567" y="117" type="curve" smooth="yes"/>
      <point x="306" y="117"/>
      <point x="272" y="186"/>
      <point x="272" y="283" type="curve" smooth="yes"/>
      <point x="272" y="317"/>
      <point x="276" y="354"/>
    </contour>
    <contour>
      <point x="131" y="540" type="curve" smooth="yes"/>
      <point x="131" y="510" type="line" smooth="yes"/>
      <point x="131" y="480" type="line" smooth="yes"/>
      <point x="131" y="133"/>
      <point x="137" y="0"/>
      <point x="546" y="0" type="curve"/>
      <point x="710" y="0"/>
      <point x="785" y="43"/>
      <point x="818" y="139" type="curve"/>
      <point x="818" y="-106" type="line" smooth="yes"/>
      <point x="819" y="-118"/>
      <point x="819" y="-129"/>
      <point x="819" y="-140" type="curve" smooth="yes"/>
      <point x="819" y="-237"/>
      <point x="785" y="-297"/>
      <point x="543" y="-297" type="curve" smooth="yes"/>
      <point x="439" y="-297"/>
      <point x="291" y="-283"/>
      <point x="221" y="-263" type="curve"/>
      <point x="214" y="-364" type="line"/>
      <point x="287" y="-390"/>
      <point x="451" y="-405"/>
      <point x="570" y="-405" type="curve" smooth="yes"/>
      <point x="924" y="-405"/>
      <point x="965" y="-298"/>
      <point x="965" y="65" type="curve" smooth="yes"/>
      <point x="967" y="1051" type="line"/>
      <point x="834" y="1051" type="line"/>
      <point x="817" y="926" type="line"/>
      <point x="771" y="1037"/>
      <point x="667" y="1070"/>
      <point x="494" y="1070" type="curve" smooth="yes"/>
      <point x="151" y="1070"/>
      <point x="131" y="949"/>
    </contour>
  </outline>
</glyph>
<glyph name="k" format="1">
  <advance width="995"/>
  <unicode hex="006B"/>
  <outline>
    <contour>
      <point x="495" y="0" type="move" name="bottom"/>
    </contour>
    <contour>
      <point x="502" y="0" type="move" name="bot"/>
    </contour>
    <contour>
      <point x="586" y="1269" type="move" name="top"/>
    </contour>
    <contour>
      <point x="158" y="1500" type="line"/>
      <point x="158" y="0" type="line"/>
      <point x="304" y="0" type="line"/>
      <point x="304" y="467" type="line"/>
      <point x="403" y="576" type="line"/>
      <point x="806" y="0" type="line"/>
      <point x="965" y="0" type="line"/>
      <point x="505" y="651" type="line"/>
      <point x="928" y="1050" type="line"/>
      <point x="755" y="1050" type="line"/>
      <point x="487" y="783" type="line"/>
      <point x="422" y="706"/>
      <point x="366" y="659"/>
      <point x="303" y="585" type="curve"/>
      <point x="303" y="645"/>
      <point x="304" y="675"/>
      <point x="304" y="737" type="curve" smooth="yes"/>
      <point x="304" y="1500" type="line"/>
    </contour>
  </outline>
</glyph>
<glyph name="m" format="1">
  <advance width="1680"/>
  <unicode hex="006D"/>
  <outline>
    <contour>
      <point x="844" y="0" type="move" name="bot"/>
    </contour>
    <contour>
      <point x="844" y="1069" type="move" name="top"/>
    </contour>
    <contour>
      <point x="875" y="922" type="curve"/>
      <point x="837" y="1040"/>
      <point x="751" y="1070"/>
      <point x="605" y="1070" type="curve" smooth="yes"/>
      <point x="460" y="1070"/>
      <point x="363" y="1047"/>
      <point x="308" y="928" type="curve"/>
      <point x="291" y="1050" type="line"/>
      <point x="158" y="1050" type="line"/>
      <point x="158" y="0" type="line"/>
      <point x="304" y="0" type="line"/>
      <point x="305" y="849" type="line" smooth="yes"/>
      <point x="305" y="939"/>
      <point x="434" y="964"/>
      <point x="535" y="964" type="curve" smooth="yes"/>
      <point x="772" y="964"/>
      <point x="777" y="903"/>
      <point x="777" y="678" type="curve" smooth="yes"/>
      <point x="777" y="644" type="line" smooth="yes"/>
      <point x="777" y="0" type="line"/>
      <point x="924" y="0" type="line"/>
      <point x="923" y="734" type="line" smooth="yes"/>
      <point x="923" y="777"/>
      <point x="923" y="814"/>
      <point x="935" y="842" type="curve" smooth="yes"/>
      <point x="960" y="924"/>
      <point x="1018" y="964"/>
      <point x="1197" y="964" type="curve" smooth="yes"/>
      <point x="1381" y="964"/>
      <point x="1390" y="871"/>
      <point x="1390" y="643" type="curve" smooth="yes"/>
      <point x="1390" y="565" type="line" smooth="yes"/>
      <point x="1390" y="0" type="line"/>
      <point x="1536" y="0" type="line"/>
      <point x="1536" y="611" type="line" smooth="yes"/>
      <point x="1536" y="986"/>
      <point x="1494" y="1070"/>
      <point x="1187" y="1070" type="curve" smooth="yes"/>
      <point x="1025" y="1070"/>
      <point x="927" y="1028"/>
    </contour>
  </outline>
</glyph>
<glyph name="o" format="1">
  <advance width="1142"/>
  <unicode hex="006F"/>
  <outline>
    <contour>
      <point x="572" y="0" type="move" name="bot"/>
    </contour>
    <contour>
      <point x="642" y="0" type="move" name="ogonek"/>
    </contour>
    <contour>
      <point x="573" y="1069" type="move" name="top"/>
    </contour>
    <contour>
      <point x="572" y="93" type="curve" smooth="yes"/>
      <point x="370" y="93"/>
      <point x="293" y="116"/>
      <point x="293" y="206" type="curve" smooth="yes"/>
      <point x="292" y="833" type="line" smooth="yes"/>
      <point x="292" y="949"/>
      <point x="435" y="949"/>
      <point x="571" y="949" type="curve" smooth="yes"/>
      <point x="707" y="949"/>
      <point x="850" y="949"/>
      <point x="850" y="833" type="curve" smooth="yes"/>
      <point x="849" y="206" type="line" smooth="yes"/>
      <point x="849" y="114"/>
      <point x="774" y="93"/>
    </contour>
    <contour>
      <point x="570" y="1070" type="curve" smooth="yes"/>
      <point x="181" y="1070"/>
      <point x="140" y="985"/>
      <point x="136" y="605" type="curve" smooth="yes"/>
      <point x="136" y="504" type="line" smooth="yes"/>
      <point x="136" y="106"/>
      <point x="151" y="-20"/>
      <point x="569" y="-20" type="curve" smooth="yes"/>
      <point x="989" y="-20"/>
      <point x="1006" y="106"/>
      <point x="1006" y="502" type="curve" smooth="yes"/>
      <point x="1006" y="973"/>
      <point x="991" y="1070"/>
    </contour>
  </outline>
</glyph>
<glyph name="p" format="1">
  <advance width="1134"/>
  <unicode hex="0070"/>
  <outline>
    <contour>
      <point x="565" y="0" type="move" name="bot"/>
    </contour>
    <contour>
      <point x="565" y="1069" type="move" name="top"/>
    </contour>
    <contour>
      <point x="583" y="98" type="curve" smooth="yes"/>
      <point x="334" y="98"/>
      <point x="298" y="171"/>
      <point x="298" y="507" type="curve" smooth="yes"/>
      <point x="298" y="598" type="line" smooth="yes"/>
      <point x="298" y="628" type="line" smooth="yes"/>
      <point x="298" y="911"/>
      <point x="303" y="950"/>
      <point x="583" y="950" type="curve" smooth="yes"/>
      <point x="832" y="950"/>
      <point x="860" y="869"/>
      <point x="860" y="753" type="curve" smooth="yes"/>
      <point x="860" y="719"/>
      <point x="858" y="683"/>
      <point x="858" y="644" type="curve" smooth="yes"/>
      <point x="858" y="465" type="line" smooth="yes"/>
      <point x="858" y="432" type="line" smooth="yes"/>
      <point x="858" y="137"/>
      <point x="853" y="98"/>
    </contour>
    <contour>
      <point x="158" y="-382" type="line"/>
      <point x="303" y="-363" type="line"/>
      <point x="303" y="101" type="line"/>
      <point x="323" y="24"/>
      <point x="422" y="-20"/>
      <point x="600" y="-20" type="curve" smooth="yes"/>
      <point x="951" y="-20"/>
      <point x="994" y="132"/>
      <point x="998" y="515" type="curve"/>
      <point x="998" y="910"/>
      <point x="970" y="1070"/>
      <point x="622" y="1070" type="curve" smooth="yes"/>
      <point x="444" y="1070"/>
      <point x="346" y="1030"/>
      <point x="310" y="927" type="curve"/>
      <point x="293" y="1050" type="line"/>
      <point x="158" y="1050" type="line"/>
    </contour>
  </outline>
</glyph>
<glyph name="q" format="1">
  <advance width="1134"/>
  <unicode hex="0071"/>
  <outline>
    <contour>
      <point x="552" y="98" type="curve" smooth="yes"/>
      <point x="281" y="98"/>
      <point x="276" y="137"/>
      <point x="276" y="432" type="curve" smooth="yes"/>
      <point x="276" y="465" type="line" smooth="yes"/>
      <point x="276" y="657" type="line" smooth="yes"/>
      <point x="276" y="693"/>
      <point x="274" y="727"/>
      <point x="274" y="759" type="curve" smooth="yes"/>
      <point x="274" y="869"/>
      <point x="302" y="950"/>
      <point x="552" y="950" type="curve" smooth="yes"/>
      <point x="831" y="950"/>
      <point x="836" y="911"/>
      <point x="836" y="628" type="curve" smooth="yes"/>
      <point x="836" y="598" type="line" smooth="yes"/>
      <point x="836" y="507" type="line" smooth="yes"/>
      <point x="836" y="177"/>
      <point x="800" y="98"/>
    </contour>
    <contour>
      <point x="510" y="1070" type="curve" smooth="yes"/>
      <point x="184" y="1070"/>
      <point x="140" y="928"/>
      <point x="136" y="581" type="curve"/>
      <point x="136" y="149"/>
      <point x="163" y="-20"/>
      <point x="532" y="-20" type="curve" smooth="yes"/>
      <point x="710" y="-20"/>
      <point x="812" y="30"/>
      <point x="832" y="107" type="curve"/>
      <point x="832" y="-363" type="line"/>
      <point x="976" y="-382" type="line"/>
      <point x="976" y="1050" type="line"/>
      <point x="841" y="1050" type="line"/>
      <point x="824" y="927" type="line"/>
      <point x="788" y="1030"/>
      <point x="688" y="1070"/>
    </contour>
  </outline>
</glyph>
<glyph name="r" format="1">
  <advance width="675"/>
  <unicode hex="0072"/>
  <outline>
    <contour>
      <point x="359" y="0" type="move" name="bot"/>
    </contour>
    <contour>
      <point x="339" y="1069" type="move" name="top"/>
    </contour>
    <contour>
      <point x="315" y="933" type="curve"/>
      <point x="298" y="1050" type="line"/>
      <point x="162" y="1050" type="line"/>
      <point x="162" y="0" type="line"/>
      <point x="307" y="0" type="line"/>
      <point x="307" y="408" type="line" smooth="yes"/>
      <point x="307" y="494"/>
      <point x="299" y="562"/>
      <point x="299" y="661" type="curve" smooth="yes"/>
      <point x="299" y="920"/>
      <point x="380" y="940"/>
      <point x="590" y="940" type="curve"/>
      <point x="600" y="1059" type="line"/>
      <point x="588" y="1059" type="line" smooth="yes"/>
      <point x="466" y="1059"/>
      <point x="362" y="1043"/>
    </contour>
  </outline>
</glyph>
<glyph name="t" format="1">
  <advance width="780"/>
  <unicode hex="0074"/>
  <outline>
    <contour>
      <point x="375" y="660" type="move" name="mid"/>
    </contour>
    <contour>
      <point x="447" y="0" type="move" name="bot"/>
    </contour>
    <contour>
      <point x="294" y="1251" type="move" name="caron.alt"/>
    </contour>
    <contour>
      <point x="347" y="1201" type="move" name="top"/>
    </contour>
    <contour>
      <point x="272" y="208" type="line" smooth="yes"/>
      <point x="272" y="33"/>
      <point x="369" y="-15"/>
      <point x="502" y="-15" type="curve" smooth="yes"/>
      <point x="552" y="-15"/>
      <point x="609" y="-12"/>
      <point x="685" y="-2" type="curve"/>
      <point x="689" y="117" type="line"/>
      <point x="627" y="109"/>
      <point x="577" y="104"/>
      <point x="539" y="104" type="curve" smooth="yes"/>
      <point x="445" y="104"/>
      <point x="416" y="133"/>
      <point x="416" y="211" type="curve" smooth="yes"/>
      <point x="416" y="959" type="line"/>
      <point x="646" y="959" type="line"/>
      <point x="646" y="1050" type="line"/>
      <point x="416" y="1050" type="line"/>
      <point x="416" y="1411" type="line"/>
      <point x="272" y="1411" type="line"/>
      <point x="272" y="1050" type="line"/>
      <point x="99" y="1050" type="line"/>
      <point x="99" y="959" type="line"/>
      <point x="272" y="959" type="line"/>
    </contour>
  </outline>
</glyph>
<glyph name="y" format="1">
  <advance width="960"/>
  <unicode hex="0079"/>
  <outline>
    <contour>
      <point x="486" y="0" type="move" name="bot"/>
    </contour>
    <contour>
      <point x="495" y="1069" type="move" name="top"/>
    </contour>
    <contour>
      <point x="794" y="1050" type="line"/>
      <point x="511" y="180" type="line"/>
      <point x="186" y="1050" type="line"/>
      <point x="38" y="1050" type="line"/>
      <point x="465" y="0" type="line"/>
      <point x="440" y="-104"/>
      <point x="426" y="-172"/>
      <point x="397" y="-213" type="curve" smooth="yes"/>
      <point x="369" y="-247"/>
      <point x="331" y="-260"/>
      <point x="259" y="-260" type="curve" smooth="yes"/>
      <point x="230" y="-260"/>
      <point x="196" y="-261"/>
      <point x="153" y="-261" type="curve"/>
      <point x="143" y="-350" type="line"/>
      <point x="202" y="-349"/>
      <point x="235" y="-347"/>
      <point x="273" y="-347" type="curve" smooth="yes"/>
      <point x="437" y="-347"/>
      <point x="484" y="-296"/>
      <point x="566" y="-50" type="curve" smooth="yes"/>
      <point x="935" y="1050" type="line"/>
    </contour>
  </outline>
</glyph>
<glyph name="sterling" format="1">
  <advance width="1467"/>
  <unicode hex="00A3"/>
  <outline>
    <contour>
      <point x="177" y="0" type="line"/>
      <point x="191" y="0"/>
      <point x="173" y="0"/>
      <point x="187" y="1" type="curve" smooth="yes"/>
      <point x="283" y="11"/>
      <point x="336" y="63"/>
      <point x="338" y="141" type="curve"/>
      <point x="361" y="7"/>
      <point x="516" y="0"/>
      <point x="735" y="-0" type="curve" smooth="yes"/>
      <point x="817" y="0" type="line" smooth="yes"/>
      <point x="1129" y="0"/>
      <point x="1268" y="7"/>
      <point x="1278" y="149" type="curve"/>
      <point x="1293" y="408" type="line"/>
      <point x="1192" y="429" type="line"/>
      <point x="1180" y="231" type="line"/>
      <point x="1177" y="146"/>
      <point x="1048" y="136"/>
      <point x="870" y="136" type="curve" smooth="yes"/>
      <point x="544" y="136"/>
      <point x="449" y="165"/>
      <point x="449" y="242" type="curve" smooth="yes"/>
      <point x="449" y="697" type="line"/>
      <point x="956" y="697" type="line"/>
      <point x="956" y="817" type="line"/>
      <point x="449" y="817" type="line"/>
      <point x="449" y="1193" type="line" smooth="yes"/>
      <point x="449" y="1365"/>
      <point x="466" y="1402"/>
      <point x="813" y="1402" type="curve" smooth="yes"/>
      <point x="1074" y="1402"/>
      <point x="1126" y="1396"/>
      <point x="1126" y="1272" type="curve" smooth="yes"/>
      <point x="1125" y="1064" type="line"/>
      <point x="1249" y="1079" type="line"/>
      <point x="1248" y="1321" type="line" smooth="yes"/>
      <point x="1247" y="1448"/>
      <point x="1184" y="1521"/>
      <point x="838" y="1521" type="curve" smooth="yes"/>
      <point x="477" y="1521"/>
      <point x="330" y="1503"/>
      <point x="330" y="1216" type="curve" smooth="yes"/>
      <point x="330" y="818" type="line"/>
      <point x="179" y="818" type="line"/>
      <point x="179" y="698" type="line"/>
      <point x="330" y="698" type="line"/>
      <point x="329" y="271" type="line" smooth="yes"/>
      <point x="329" y="174"/>
      <point x="318" y="136"/>
      <point x="187" y="136" type="curve" smooth="yes"/>
      <point x="177" y="136" type="line"/>
    </contour>
  </outline>
</glyph>
<glyph name="currency" format="1">
  <advance width="1124"/>
  <unicode hex="00A4"/>
  <outline>
    <contour>
      <point x="923" y="225" type="line"/>
      <point x="985" y="290" type="line"/>
      <point x="843" y="471" type="line"/>
      <point x="916" y="545"/>
      <point x="954" y="643"/>
      <point x="954" y="756" type="curve" smooth="yes"/>
      <point x="954" y="866"/>
      <point x="913" y="962"/>
      <point x="839" y="1034" type="curve"/>
      <point x="984" y="1219" type="line"/>
      <point x="922" y="1286" type="line"/>
      <point x="765" y="1098" type="line"/>
      <point x="712" y="1134"/>
      <point x="643" y="1154"/>
      <point x="561" y="1154" type="curve" smooth="yes"/>
      <point x="479" y="1154"/>
      <point x="410" y="1133"/>
      <point x="357" y="1094" type="curve"/>
      <point x="202" y="1287" type="line"/>
      <point x="142" y="1221" type="line"/>
      <point x="286" y="1033" type="line"/>
      <point x="214" y="962"/>
      <point x="174" y="869"/>
      <point x="174" y="755" type="curve" smooth="yes"/>
      <point x="174" y="640"/>
      <point x="212" y="542"/>
      <point x="283" y="470" type="curve"/>
      <point x="141" y="290" type="line"/>
      <point x="201" y="225" type="line"/>
      <point x="352" y="409" type="line"/>
      <point x="404" y="378"/>
      <point x="473" y="361"/>
      <point x="556" y="361" type="curve" smooth="yes"/>
      <point x="563" y="361" type="line" smooth="yes"/>
      <point x="646" y="361"/>
      <point x="717" y="377"/>
      <point x="773" y="409" type="curve"/>
    </contour>
    <contour>
      <point x="911" y="761" type="curve"/>
      <point x="896" y="532"/>
      <point x="785" y="419"/>
      <point x="564" y="419" type="curve" smooth="yes"/>
      <point x="332" y="419"/>
      <point x="231" y="529"/>
      <point x="216" y="759" type="curve"/>
      <point x="231" y="990"/>
      <point x="343" y="1104"/>
      <point x="564" y="1104" type="curve" smooth="yes"/>
      <point x="799" y="1104"/>
      <point x="897" y="989"/>
    </contour>
  </outline>
</glyph>
<glyph name="yen" format="1">
  <advance width="1274"/>
  <unicode hex="00A5"/>
  <outline>
    <contour>
      <point x="558" y="0" type="line"/>
      <point x="704" y="0" type="line"/>
      <point x="704" y="252" type="line"/>
      <point x="971" y="252" type="line"/>
      <point x="971" y="325" type="line"/>
      <point x="704" y="325" type="line"/>
      <point x="696" y="503" type="line"/>
      <point x="1025" y="503" type="line"/>
      <point x="1025" y="609" type="line"/>
      <point x="748" y="609" type="line"/>
      <point x="1156" y="1466" type="line"/>
      <point x="990" y="1466" type="line"/>
      <point x="637" y="707" type="line"/>
      <point x="295" y="1466" type="line"/>
      <point x="121" y="1466" type="line"/>
      <point x="515" y="609" type="line"/>
      <point x="251" y="609" type="line"/>
      <point x="251" y="503" type="line"/>
      <point x="565" y="503" type="line"/>
      <point x="558" y="325" type="line"/>
      <point x="305" y="325" type="line"/>
      <point x="305" y="252" type="line"/>
      <point x="558" y="252" type="line"/>
    </contour>
  </outline>
</glyph>
<glyph name="ordfeminine" format="1">
  <advance width="896"/>
  <unicode hex="00AA"/>
  <outline>
    <contour>
      <point x="395" y="742" type="curve" smooth="yes"/>
      <point x="326" y="742"/>
      <point x="286" y="730"/>
      <point x="262" y="730" type="curve" smooth="yes"/>
      <point x="229" y="730"/>
      <point x="229" y="753"/>
      <point x="229" y="865" type="curve" smooth="yes"/>
      <point x="229" y="962"/>
      <point x="274" y="994"/>
      <point x="647" y="999" type="curve"/>
      <point x="647" y="983" type="line"/>
      <point x="643" y="847"/>
      <point x="641" y="742"/>
    </contour>
    <contour>
      <point x="390" y="658" type="curve" smooth="yes"/>
      <point x="535" y="658"/>
      <point x="622" y="666"/>
      <point x="653" y="792" type="curve"/>
      <point x="674" y="666" type="line"/>
      <point x="751" y="667" type="line"/>
      <point x="751" y="1180" type="line" smooth="yes"/>
      <point x="751" y="1413"/>
      <point x="694" y="1486"/>
      <point x="468" y="1486" type="curve" smooth="yes"/>
      <point x="286" y="1486"/>
      <point x="191" y="1468"/>
      <point x="191" y="1294" type="curve" smooth="yes"/>
      <point x="191" y="1283"/>
      <point x="191" y="1297"/>
      <point x="192" y="1285" type="curve"/>
      <point x="256" y="1275" type="line" smooth="yes"/>
      <point x="256" y="1278" type="line" smooth="yes"/>
      <point x="256" y="1364"/>
      <point x="272" y="1399"/>
      <point x="456" y="1399" type="curve" smooth="yes"/>
      <point x="644" y="1399"/>
      <point x="647" y="1371"/>
      <point x="647" y="1272" type="curve" smooth="yes"/>
      <point x="647" y="1263" type="line" smooth="yes"/>
      <point x="647" y="1089" type="line"/>
      <point x="622" y="1089"/>
      <point x="627" y="1090"/>
      <point x="599" y="1090" type="curve" smooth="yes"/>
      <point x="327" y="1090"/>
      <point x="141" y="1056"/>
      <point x="141" y="932" type="curve" smooth="yes"/>
      <point x="141" y="728"/>
      <point x="183" y="658"/>
    </contour>
    <contour>
      <point x="256" y="1275" type="line"/>
      <point x="257" y="1275" type="line"/>
      <point x="257" y="1280"/>
      <point x="256" y="1281"/>
      <point x="256" y="1281" type="curve" smooth="yes"/>
    </contour>
  </outline>
</glyph>
<glyph name="guillemotleft" format="1">
  <advance width="1717"/>
  <unicode hex="00AB"/>
  <outline>
    <contour>
      <point x="1247" y="266" type="curve" smooth="yes"/>
      <point x="1284" y="266"/>
      <point x="1311" y="296"/>
      <point x="1311" y="330" type="curve" smooth="yes"/>
      <point x="1311" y="347"/>
      <point x="1303" y="366"/>
      <point x="1286" y="382" type="curve" smooth="yes"/>
      <point x="861" y="782" type="line"/>
      <point x="1286" y="1182" type="line"/>
      <point x="1303" y="1203"/>
      <point x="1311" y="1223"/>
      <point x="1311" y="1234" type="curve" smooth="yes"/>
      <point x="1311" y="1270"/>
      <point x="1288" y="1299"/>
      <point x="1256" y="1299" type="curve" smooth="yes"/>
      <point x="1253" y="1299"/>
      <point x="1250" y="1299"/>
      <point x="1247" y="1298" type="curve"/>
      <point x="1244" y="1299"/>
      <point x="1240" y="1300"/>
      <point x="1237" y="1300" type="curve" smooth="yes"/>
      <point x="1224" y="1300"/>
      <point x="1212" y="1291"/>
      <point x="1197" y="1278" type="curve" smooth="yes"/>
      <point x="698" y="885" type="line" smooth="yes"/>
      <point x="653" y="850"/>
      <point x="630" y="821"/>
      <point x="630" y="782" type="curve" smooth="yes"/>
      <point x="630" y="749"/>
      <point x="651" y="716"/>
      <point x="698" y="679" type="curve" smooth="yes"/>
      <point x="1197" y="286" type="line" smooth="yes"/>
      <point x="1214" y="272"/>
      <point x="1232" y="266"/>
    </contour>
    <contour>
      <point x="712" y="266" type="curve" smooth="yes"/>
      <point x="749" y="266"/>
      <point x="776" y="296"/>
      <point x="776" y="330" type="curve" smooth="yes"/>
      <point x="776" y="347"/>
      <point x="768" y="366"/>
      <point x="751" y="382" type="curve" smooth="yes"/>
      <point x="325" y="782" type="line"/>
      <point x="751" y="1182" type="line"/>
      <point x="767" y="1203"/>
      <point x="776" y="1223"/>
      <point x="776" y="1234" type="curve" smooth="yes"/>
      <point x="776" y="1270"/>
      <point x="753" y="1299"/>
      <point x="721" y="1299" type="curve" smooth="yes"/>
      <point x="718" y="1299"/>
      <point x="715" y="1299"/>
      <point x="712" y="1298" type="curve"/>
      <point x="709" y="1299"/>
      <point x="705" y="1300"/>
      <point x="702" y="1300" type="curve" smooth="yes"/>
      <point x="689" y="1300"/>
      <point x="677" y="1291"/>
      <point x="662" y="1278" type="curve" smooth="yes"/>
      <point x="163" y="885" type="line" smooth="yes"/>
      <point x="118" y="850"/>
      <point x="95" y="821"/>
      <point x="95" y="782" type="curve" smooth="yes"/>
      <point x="95" y="749"/>
      <point x="116" y="716"/>
      <point x="163" y="679" type="curve" smooth="yes"/>
      <point x="662" y="286" type="line" smooth="yes"/>
      <point x="679" y="272"/>
      <point x="696" y="266"/>
    </contour>
  </outline>
</glyph>
<glyph name="paragraph" format="1">
  <advance width="1064"/>
  <unicode hex="00B6"/>
  <outline>
    <contour>
      <point x="400" y="1488" type="line" smooth="yes"/>
      <point x="121" y="1488"/>
      <point x="12" y="1371"/>
      <point x="12" y="1168" type="curve" smooth="yes"/>
      <point x="12" y="969"/>
      <point x="199" y="862"/>
      <point x="509" y="862" type="curve"/>
      <point x="509" y="-258" type="line"/>
      <point x="611" y="-258" type="line"/>
      <point x="611" y="1399" type="line"/>
      <point x="834" y="1399" type="line"/>
      <point x="834" y="-258" type="line"/>
      <point x="923" y="-258" type="line"/>
      <point x="923" y="1488" type="line"/>
    </contour>
  </outline>
</glyph>
<glyph name="cedilla" format="1">
  <advance width="675"/>
  <unicode hex="00B8"/>
  <outline>
    <contour>
      <point x="344" y="0" type="move" name="_bot"/>
    </contour>
    <contour>
      <point x="296" y="8" type="line"/>
      <point x="258" y="-135" type="line" smooth="yes"/>
      <point x="238" y="-208"/>
      <point x="226" y="-255"/>
      <point x="221" y="-277" type="curve"/>
      <point x="313" y="-277"/>
      <point x="359" y="-306"/>
      <point x="359" y="-366" type="curve" smooth="yes"/>
      <point x="359" y="-408"/>
      <point x="333" y="-422"/>
      <point x="299" y="-422" type="curve" smooth="yes"/>
      <point x="242" y="-422"/>
      <point x="160" y="-383"/>
      <point x="138" y="-372" type="curve"/>
      <point x="92" y="-459" type="line"/>
      <point x="154" y="-512"/>
      <point x="245" y="-540"/>
      <point x="329" y="-540" type="curve" smooth="yes"/>
      <point x="457" y="-540"/>
      <point x="574" y="-478"/>
      <point x="574" y="-354" type="curve" smooth="yes"/>
      <point x="574" y="-205"/>
      <point x="487" y="-178"/>
      <point x="354" y="-160" type="curve"/>
      <point x="403" y="8" type="line"/>
    </contour>
  </outline>
</glyph>
<glyph name="onesuperior" format="1">
  <advance width="784"/>
  <unicode hex="00B9"/>
  <outline>
    <contour>
      <point x="368" y="350" type="line"/>
      <point x="524" y="350" type="line"/>
      <point x="524" y="1466" type="line"/>
      <point x="440" y="1466" type="line"/>
      <point x="383" y="1431"/>
      <point x="314" y="1411"/>
      <point x="224" y="1411" type="curve"/>
      <point x="224" y="1291" type="line"/>
      <point x="368" y="1291" type="line"/>
    </contour>
  </outline>
</glyph>
<glyph name="onequarter" format="1">
  <advance width="2311"/>
  <unicode hex="00BC"/>
  <outline>
    <contour>
      <point x="610" y="0" type="line"/>
      <point x="717" y="0" type="line"/>
      <point x="1443" y="1510" type="line"/>
      <point x="1236" y="1510" type="line"/>
    </contour>
    <contour>
      <point x="283" y="426" type="line"/>
      <point x="438" y="426" type="line"/>
      <point x="438" y="1466" type="line"/>
      <point x="354" y="1466" type="line"/>
      <point x="297" y="1431"/>
      <point x="229" y="1411"/>
      <point x="139" y="1411" type="curve"/>
      <point x="139" y="1291" type="line"/>
      <point x="283" y="1291" type="line"/>
    </contour>
    <contour>
      <point x="1960" y="0" type="line"/>
      <point x="2124" y="0" type="line"/>
      <point x="2124" y="704" type="line"/>
      <point x="1960" y="704" type="line"/>
      <point x="1960" y="400" type="line"/>
      <point x="1544" y="400" type="line"/>
      <point x="1544" y="409" type="line"/>
      <point x="1908" y="1116" type="line"/>
      <point x="1763" y="1116" type="line"/>
      <point x="1365" y="393" type="line"/>
      <point x="1365" y="272" type="line"/>
      <point x="1960" y="272" type="line"/>
    </contour>
  </outline>
</glyph>
<glyph name="threequarters" format="1">
  <advance width="2595"/>
  <unicode hex="00BE"/>
  <outline>
    <contour>
      <point x="591" y="399" type="curve" smooth="yes"/>
      <point x="852" y="399"/>
      <point x="977" y="460"/>
      <point x="977" y="706" type="curve" smooth="yes"/>
      <point x="977" y="814"/>
      <point x="977" y="912"/>
      <point x="883" y="936" type="curve"/>
      <point x="973" y="959"/>
      <point x="975" y="1034"/>
      <point x="975" y="1135" type="curve" smooth="yes"/>
      <point x="975" y="1148" type="line" smooth="yes"/>
      <point x="975" y="1395"/>
      <point x="914" y="1472"/>
      <point x="590" y="1472" type="curve" smooth="yes"/>
      <point x="241" y="1472"/>
      <point x="177" y="1389"/>
      <point x="177" y="1126" type="curve" smooth="yes"/>
      <point x="177" y="1108" type="line"/>
      <point x="349" y="1108" type="line"/>
      <point x="350" y="1112" type="line"/>
      <point x="355" y="1319"/>
      <point x="380" y="1345"/>
      <point x="590" y="1345" type="curve" smooth="yes"/>
      <point x="802" y="1345"/>
      <point x="818" y="1304"/>
      <point x="818" y="1139" type="curve" smooth="yes"/>
      <point x="818" y="1098"/>
      <point x="819" y="1069"/>
      <point x="819" y="1048" type="curve" smooth="yes"/>
      <point x="819" y="1003"/>
      <point x="816" y="997"/>
      <point x="792" y="997" type="curve" smooth="yes"/>
      <point x="784" y="997"/>
      <point x="774" y="998"/>
      <point x="761" y="998" type="curve" smooth="yes"/>
      <point x="483" y="998" type="line"/>
      <point x="483" y="887" type="line"/>
      <point x="761" y="887" type="line" smooth="yes"/>
      <point x="786" y="887" type="line" smooth="yes"/>
      <point x="816" y="887"/>
      <point x="818" y="880"/>
      <point x="818" y="808" type="curve" smooth="yes"/>
      <point x="818" y="768" type="line" smooth="yes"/>
      <point x="818" y="597"/>
      <point x="798" y="537"/>
      <point x="609" y="537" type="curve" smooth="yes"/>
      <point x="373" y="537"/>
      <point x="348" y="588"/>
      <point x="348" y="736" type="curve" smooth="yes"/>
      <point x="348" y="772" type="line"/>
      <point x="177" y="772" type="line"/>
      <point x="177" y="738" type="line" smooth="yes"/>
      <point x="177" y="488"/>
      <point x="253" y="399"/>
    </contour>
    <contour>
      <point x="994" y="0" type="line"/>
      <point x="1101" y="0" type="line"/>
      <point x="1827" y="1510" type="line"/>
      <point x="1620" y="1510" type="line"/>
    </contour>
    <contour>
      <point x="2245" y="0" type="line"/>
      <point x="2409" y="0" type="line"/>
      <point x="2409" y="704" type="line"/>
      <point x="2245" y="704" type="line"/>
      <point x="2245" y="400" type="line"/>
      <point x="1829" y="400" type="line"/>
      <point x="1829" y="409" type="line"/>
      <point x="2192" y="1116" type="line"/>
      <point x="2047" y="1116" type="line"/>
      <point x="1649" y="393" type="line"/>
      <point x="1649" y="272" type="line"/>
      <point x="2245" y="272" type="line"/>
    </contour>
    <contour>
      <point x="348" y="772" type="line"/>
      <point x="348" y="783" type="line"/>
      <point x="349" y="772" type="line"/>
    </contour>
  </outline>
</glyph>
<glyph name="AE" format="1">
  <advance width="2102"/>
  <unicode hex="00C6"/>
  <outline>
    <contour>
      <point x="1167" y="1475" type="move" name="top"/>
    </contour>
    <contour>
      <point x="591" y="510" type="line"/>
      <point x="1075" y="1434" type="line"/>
      <point x="1075" y="510" type="line"/>
    </contour>
    <contour>
      <point x="116" y="0" type="line"/>
      <point x="299" y="0" type="line"/>
      <point x="526" y="389" type="line"/>
      <point x="1075" y="389" type="line"/>
      <point x="1075" y="0" type="line"/>
      <point x="1942" y="0" type="line"/>
      <point x="1942" y="149" type="line"/>
      <point x="1233" y="149" type="line"/>
      <point x="1233" y="694" type="line"/>
      <point x="1797" y="694" type="line"/>
      <point x="1797" y="842" type="line"/>
      <point x="1233" y="842" type="line"/>
      <point x="1233" y="1316" type="line"/>
      <point x="1920" y="1316" type="line"/>
      <point x="1920" y="1466" type="line"/>
      <point x="976" y="1466" type="line"/>
    </contour>
  </outline>
</glyph>
<glyph name="multiply" format="1">
  <advance width="904"/>
  <unicode hex="00D7"/>
  <outline>
    <contour>
      <point x="231" y="353" type="curve"/>
      <point x="452" y="598" type="line"/>
      <point x="675" y="353" type="line"/>
      <point x="761" y="430" type="line"/>
      <point x="543" y="675" type="line"/>
      <point x="761" y="919" type="line"/>
      <point x="675" y="996" type="line"/>
      <point x="452" y="752" type="line"/>
      <point x="231" y="996" type="line"/>
      <point x="156" y="907"/>
      <point x="175" y="955"/>
      <point x="144" y="919" type="curve"/>
      <point x="382" y="632"/>
      <point x="354" y="685"/>
      <point x="363" y="675" type="curve"/>
      <point x="144" y="430" type="line"/>
      <point x="219" y="341"/>
      <point x="200" y="389"/>
    </contour>
  </outline>
</glyph>
<glyph name="germandbls" format="1">
  <advance width="1223"/>
  <unicode hex="00DF"/>
  <outline>
    <contour>
      <point x="164" y="-180" type="line"/>
      <point x="320" y="-161" type="line"/>
      <point x="320" y="1019" type="line" smooth="yes"/>
      <point x="320" y="1031" type="line" smooth="yes"/>
      <point x="320" y="1318"/>
      <point x="357" y="1332"/>
      <point x="592" y="1332" type="curve" smooth="yes"/>
      <point x="814" y="1332"/>
      <point x="841" y="1290"/>
      <point x="841" y="1090" type="curve" smooth="yes"/>
      <point x="841" y="912"/>
      <point x="833" y="863"/>
      <point x="731" y="863" type="curve" smooth="yes"/>
      <point x="472" y="863" type="line"/>
      <point x="472" y="734" type="line"/>
      <point x="731" y="733" type="line" smooth="yes"/>
      <point x="900" y="733"/>
      <point x="927" y="711"/>
      <point x="927" y="511" type="curve" smooth="yes"/>
      <point x="927" y="484"/>
      <point x="927" y="453"/>
      <point x="926" y="419" type="curve" smooth="yes"/>
      <point x="920" y="175"/>
      <point x="894" y="150"/>
      <point x="787" y="150" type="curve" smooth="yes"/>
      <point x="759" y="150"/>
      <point x="726" y="152"/>
      <point x="686" y="152" type="curve" smooth="yes"/>
      <point x="441" y="155" type="line"/>
      <point x="441" y="9" type="line"/>
      <point x="710" y="9" type="line" smooth="yes"/>
      <point x="936" y="9"/>
      <point x="1083" y="121"/>
      <point x="1083" y="406" type="curve" smooth="yes"/>
      <point x="1083" y="452" type="line" smooth="yes"/>
      <point x="1083" y="736"/>
      <point x="978" y="809"/>
      <point x="866" y="817" type="curve"/>
      <point x="953" y="828"/>
      <point x="1001" y="938"/>
      <point x="1001" y="1127" type="curve" smooth="yes"/>
      <point x="1001" y="1388"/>
      <point x="878" y="1474"/>
      <point x="592" y="1474" type="curve" smooth="yes"/>
      <point x="276" y="1474"/>
      <point x="164" y="1389"/>
      <point x="164" y="1112" type="curve" smooth="yes"/>
    </contour>
  </outline>
</glyph>
<glyph name="divide" format="1">
  <advance width="656"/>
  <unicode hex="00F7"/>
  <outline>
    <contour>
      <point x="331" y="925" type="curve" smooth="yes"/>
      <point x="419" y="925"/>
      <point x="471" y="991"/>
      <point x="471" y="1079" type="curve" smooth="yes"/>
      <point x="471" y="1157"/>
      <point x="415" y="1233"/>
      <point x="345" y="1233" type="curve" smooth="yes"/>
      <point x="244" y="1233"/>
      <point x="191" y="1175"/>
      <point x="191" y="1079" type="curve" smooth="yes"/>
      <point x="191" y="984"/>
      <point x="249" y="925"/>
    </contour>
    <contour>
      <point x="-13" y="614" type="line"/>
      <point x="674" y="614" type="line"/>
      <point x="674" y="753" type="line"/>
      <point x="-13" y="753" type="line"/>
    </contour>
    <contour>
      <point x="331" y="134" type="curve" smooth="yes"/>
      <point x="417" y="134"/>
      <point x="471" y="203"/>
      <point x="471" y="288" type="curve" smooth="yes"/>
      <point x="471" y="366"/>
      <point x="415" y="442"/>
      <point x="345" y="442" type="curve" smooth="yes"/>
      <point x="244" y="442"/>
      <point x="191" y="383"/>
      <point x="191" y="288" type="curve" smooth="yes"/>
      <point x="191" y="193"/>
      <point x="250" y="134"/>
    </contour>
  </outline>
</glyph>
<glyph name="Lslash" format="1">
  <advance width="978"/>
  <unicode hex="0141"/>
  <outline>
    <component base="L"/>
    <contour>
      <point x="47" y="526" type="line"/>
      <point x="636" y="845" type="line"/>
      <point x="636" y="1005" type="line"/>
      <point x="47" y="685" type="line"/>
    </contour>
  </outline>
</glyph>
<glyph name="Eng" format="1">
  <advance width="1374"/>
  <unicode hex="014A"/>
  <outline>
    <contour>
      <point x="817" y="-356" type="line"/>
      <point x="1127" y="-356"/>
      <point x="1216" y="-265"/>
      <point x="1216" y="15" type="curve" smooth="yes"/>
      <point x="1216" y="1466" type="line"/>
      <point x="1076" y="1466" type="line"/>
      <point x="1076" y="247" type="line"/>
      <point x="320" y="1466" type="line"/>
      <point x="158" y="1466" type="line"/>
      <point x="158" y="0" type="line"/>
      <point x="299" y="0" type="line"/>
      <point x="299" y="1284" type="line"/>
      <point x="1085" y="49" type="line"/>
      <point x="1085" y="-57" type="line" smooth="yes"/>
      <point x="1086" y="-73"/>
      <point x="1087" y="-88"/>
      <point x="1087" y="-102" type="curve" smooth="yes"/>
      <point x="1087" y="-193"/>
      <point x="1057" y="-249"/>
      <point x="829" y="-249" type="curve"/>
    </contour>
  </outline>
</glyph>
<glyph name="eng" format="1">
  <advance width="1109"/>
  <unicode hex="014B"/>
  <outline>
    <contour>
      <point x="584" y="-377" type="line"/>
      <point x="928" y="-377"/>
      <point x="959" y="-259"/>
      <point x="962" y="105" type="curve"/>
      <point x="962" y="532" type="line" smooth="yes"/>
      <point x="962" y="923"/>
      <point x="943" y="1082"/>
      <point x="630" y="1082" type="curve" smooth="yes"/>
      <point x="485" y="1082"/>
      <point x="339" y="1050"/>
      <point x="305" y="925" type="curve"/>
      <point x="289" y="1050" type="line"/>
      <point x="155" y="1050" type="line"/>
      <point x="155" y="0" type="line"/>
      <point x="299" y="0" type="line"/>
      <point x="299" y="705" type="line" smooth="yes"/>
      <point x="299" y="882"/>
      <point x="333" y="964"/>
      <point x="625" y="964" type="curve" smooth="yes"/>
      <point x="816" y="964"/>
      <point x="816" y="940"/>
      <point x="816" y="563" type="curve" smooth="yes"/>
      <point x="816" y="-77" type="line" smooth="yes"/>
      <point x="817" y="-90"/>
      <point x="817" y="-101"/>
      <point x="817" y="-113" type="curve" smooth="yes"/>
      <point x="817" y="-209"/>
      <point x="782" y="-269"/>
      <point x="546" y="-269" type="curve"/>
    </contour>
  </outline>
</glyph>
<glyph name="OE" format="1">
  <advance width="2141"/>
  <unicode hex="0152"/>
  <outline>
    <contour>
      <point x="1045" y="1475" type="move" name="top"/>
    </contour>
    <contour>
      <point x="725" y="0" type="curve" smooth="yes"/>
      <point x="1967" y="0" type="line"/>
      <point x="1990" y="132" type="line"/>
      <point x="1285" y="132" type="line"/>
      <point x="1285" y="691" type="line"/>
      <point x="1875" y="691" type="line"/>
      <point x="1875" y="833" type="line"/>
      <point x="1285" y="833" type="line"/>
      <point x="1285" y="1332" type="line"/>
      <point x="1980" y="1332" type="line"/>
      <point x="1957" y="1466" type="line"/>
      <point x="725" y="1466" type="line" smooth="yes"/>
      <point x="209" y="1466"/>
      <point x="155" y="1300"/>
      <point x="155" y="717" type="curve" smooth="yes"/>
      <point x="155" y="682"/>
      <point x="155" y="845"/>
      <point x="155" y="813" type="curve" smooth="yes"/>
      <point x="157" y="170"/>
      <point x="158" y="0"/>
    </contour>
    <contour>
      <point x="724" y="136" type="line"/>
      <point x="445" y="136"/>
      <point x="350" y="173"/>
      <point x="321" y="396" type="curve" smooth="yes"/>
      <point x="301" y="553"/>
      <point x="295" y="621"/>
      <point x="309" y="1036" type="curve" smooth="yes"/>
      <point x="315" y="1278"/>
      <point x="343" y="1331"/>
      <point x="724" y="1331" type="curve" smooth="yes"/>
      <point x="1142" y="1331" type="line"/>
      <point x="1142" y="136" type="line"/>
    </contour>
  </outline>
</glyph>
<glyph name="OE" format="1">
  <advance width="2141"/>
  <unicode hex="0152"/>
  <outline>
    <contour>
      <point x="1045" y="1475" type="move" name="top"/>
    </contour>
    <contour>
      <point x="724" y="136" type="line" smooth="yes"/>
      <point x="445" y="136"/>
      <point x="350" y="173"/>
      <point x="321" y="396" type="curve" smooth="yes"/>
      <point x="308" y="495"/>
      <point x="301" y="558"/>
      <point x="301" y="695" type="curve" smooth="yes"/>
      <point x="301" y="776"/>
      <point x="304" y="882"/>
      <point x="309" y="1036" type="curve" smooth="yes"/>
      <point x="315" y="1278"/>
      <point x="343" y="1331"/>
      <point x="724" y="1331" type="curve" smooth="yes"/>
      <point x="1142" y="1331" type="line"/>
      <point x="1142" y="136" type="line"/>
    </contour>
    <contour>
      <point x="725" y="0" type="curve" smooth="yes"/>
      <point x="1967" y="0" type="line"/>
      <point x="1990" y="132" type="line"/>
      <point x="1285" y="132" type="line"/>
      <point x="1285" y="691" type="line"/>
      <point x="1875" y="691" type="line"/>
      <point x="1875" y="833" type="line"/>
      <point x="1285" y="833" type="line"/>
      <point x="1285" y="1332" type="line"/>
      <point x="1980" y="1332" type="line"/>
      <point x="1957" y="1466" type="line"/>
      <point x="725" y="1466" type="line" smooth="yes"/>
      <point x="209" y="1466"/>
      <point x="155" y="1300"/>
      <point x="155" y="717" type="curve" smooth="yes"/>
      <point x="158" y="153"/>
      <point x="187" y="0"/>
    </contour>
  </outline>
</glyph>
<glyph name="florin" format="1">
  <advance width="826"/>
  <unicode hex="0192"/>
  <outline>
    <contour>
      <point x="279" y="-319" type="curve" smooth="yes"/>
      <point x="465" y="-315"/>
      <point x="492" y="-222"/>
      <point x="492" y="-56" type="curve" smooth="yes"/>
      <point x="492" y="757" type="line"/>
      <point x="690" y="757" type="line"/>
      <point x="690" y="887" type="line"/>
      <point x="492" y="887" type="line"/>
      <point x="491" y="1256" type="line" smooth="yes"/>
      <point x="491" y="1372"/>
      <point x="491" y="1392"/>
      <point x="622" y="1392" type="curve" smooth="yes"/>
      <point x="648" y="1392"/>
      <point x="674" y="1391"/>
      <point x="700" y="1389" type="curve"/>
      <point x="700" y="1543" type="line"/>
      <point x="637" y="1555"/>
      <point x="577" y="1561"/>
      <point x="524" y="1561" type="curve" smooth="yes"/>
      <point x="362" y="1561"/>
      <point x="293" y="1484"/>
      <point x="294" y="1259" type="curve" smooth="yes"/>
      <point x="295" y="887" type="line"/>
      <point x="133" y="887" type="line"/>
      <point x="133" y="757" type="line"/>
      <point x="295" y="757" type="line"/>
      <point x="295" y="-167" type="line"/>
      <point x="127" y="-167" type="line"/>
      <point x="127" y="-299" type="line"/>
      <point x="217" y="-315"/>
      <point x="251" y="-319"/>
    </contour>
  </outline>
</glyph>
<glyph name="dotlessj" format="1">
  <advance width="485"/>
  <unicode hex="0237"/>
  <outline>
    <contour>
      <point x="277" y="1069" type="move" name="top"/>
    </contour>
    <contour>
      <point x="203" y="1050" type="line"/>
      <point x="203" y="-64" type="line" smooth="yes"/>
      <point x="203" y="-216"/>
      <point x="129" y="-191"/>
      <point x="37" y="-196" type="curve"/>
      <point x="38" y="-291" type="line"/>
      <point x="71" y="-294"/>
      <point x="101" y="-296"/>
      <point x="121" y="-296" type="curve" smooth="yes"/>
      <point x="305" y="-296"/>
      <point x="347" y="-200"/>
      <point x="347" y="53" type="curve" smooth="yes"/>
      <point x="347" y="1050" type="line"/>
    </contour>
  </outline>
</glyph>
<glyph name="circumflex" format="1">
  <advance width="729"/>
  <unicode hex="02C6"/>
  <outline>
    <contour>
      <point x="347" y="1069" type="move" name="_top"/>
    </contour>
    <contour>
      <point x="590" y="1262" type="curve" smooth="yes"/>
      <point x="610" y="1262"/>
      <point x="629" y="1276"/>
      <point x="629" y="1294" type="curve" smooth="yes"/>
      <point x="629" y="1301"/>
      <point x="626" y="1307"/>
      <point x="623" y="1312" type="curve" smooth="yes"/>
      <point x="441" y="1598" type="line"/>
      <point x="416" y="1634"/>
      <point x="387" y="1645"/>
      <point x="354" y="1645" type="curve" smooth="yes"/>
      <point x="320" y="1645"/>
      <point x="292" y="1635"/>
      <point x="267" y="1598" type="curve"/>
      <point x="84" y="1312" type="line" smooth="yes"/>
      <point x="81" y="1308"/>
      <point x="79" y="1302"/>
      <point x="79" y="1295" type="curve" smooth="yes"/>
      <point x="79" y="1276"/>
      <point x="97" y="1262"/>
      <point x="117" y="1262" type="curve" smooth="yes"/>
      <point x="124" y="1262"/>
      <point x="130" y="1263"/>
      <point x="133" y="1267" type="curve" smooth="yes"/>
      <point x="354" y="1503" type="line"/>
      <point x="575" y="1267" type="line" smooth="yes"/>
      <point x="578" y="1264"/>
      <point x="583" y="1262"/>
    </contour>
  </outline>
</glyph>
<glyph name="breve" format="1">
  <advance width="655"/>
  <unicode hex="02D8"/>
  <outline>
    <contour>
      <point x="309" y="1069" type="move" name="_top"/>
    </contour>
    <contour>
      <point x="446" y="1509" type="line"/>
      <point x="446" y="1390"/>
      <point x="401" y="1336"/>
      <point x="304" y="1336" type="curve" smooth="yes"/>
      <point x="207" y="1336"/>
      <point x="162" y="1390"/>
      <point x="162" y="1509" type="curve"/>
      <point x="43" y="1509" type="line"/>
      <point x="43" y="1325"/>
      <point x="125" y="1241"/>
      <point x="304" y="1241" type="curve" smooth="yes"/>
      <point x="483" y="1241"/>
      <point x="565" y="1325"/>
      <point x="565" y="1509" type="curve"/>
    </contour>
  </outline>
</glyph>
<glyph name="hungarumlaut" format="1">
  <advance width="1035"/>
  <unicode hex="02DD"/>
  <outline>
    <contour>
      <point x="288" y="1069" type="move" name="_top"/>
    </contour>
    <contour>
      <point x="457" y="1320" type="curve"/>
      <point x="465" y="1320"/>
      <point x="462" y="1316"/>
      <point x="462" y="1315" type="curve" smooth="yes"/>
      <point x="462" y="1312"/>
      <point x="816" y="1455"/>
      <point x="830" y="1454" type="curve"/>
      <point x="874" y="1469"/>
      <point x="894" y="1507"/>
      <point x="894" y="1540" type="curve" smooth="yes"/>
      <point x="894" y="1582"/>
      <point x="862" y="1623"/>
      <point x="801" y="1623" type="curve" smooth="yes"/>
      <point x="770" y="1623"/>
      <point x="744" y="1605"/>
      <point x="723" y="1588" type="curve" smooth="yes"/>
      <point x="698" y="1566"/>
      <point x="496" y="1354"/>
    </contour>
    <contour>
      <point x="52" y="1319" type="curve"/>
      <point x="61" y="1322"/>
      <point x="57" y="1316"/>
      <point x="57" y="1315" type="curve" smooth="yes"/>
      <point x="57" y="1312"/>
      <point x="411" y="1455"/>
      <point x="425" y="1454" type="curve"/>
      <point x="469" y="1469"/>
      <point x="489" y="1507"/>
      <point x="489" y="1540" type="curve" smooth="yes"/>
      <point x="489" y="1582"/>
      <point x="457" y="1623"/>
      <point x="396" y="1623" type="curve" smooth="yes"/>
      <point x="365" y="1623"/>
      <point x="339" y="1605"/>
      <point x="318" y="1588" type="curve" smooth="yes"/>
      <point x="293" y="1565"/>
      <point x="90" y="1352"/>
    </contour>
    <contour>
      <point x="457" y="1320" type="curve"/>
      <point x="457" y="1320" type="line"/>
      <point x="457" y="1319"/>
      <point x="458" y="1318"/>
      <point x="458" y="1317" type="curve" smooth="yes"/>
      <point x="457" y="1317" type="line" smooth="yes"/>
      <point x="456" y="1318" type="line"/>
      <point x="456" y="1318" type="line"/>
      <point x="454" y="1316"/>
      <point x="452" y="1315"/>
      <point x="451" y="1315" type="curve" smooth="yes"/>
      <point x="449" y="1315"/>
      <point x="455" y="1321"/>
      <point x="455" y="1321" type="curve" smooth="yes"/>
      <point x="456" y="1321"/>
      <point x="457" y="1320"/>
    </contour>
    <contour>
      <point x="52" y="1319" type="curve" smooth="yes"/>
      <point x="52" y="1318"/>
      <point x="53" y="1318"/>
      <point x="53" y="1317" type="curve" smooth="yes"/>
      <point x="52" y="1316" type="line" smooth="yes"/>
      <point x="51" y="1317" type="line" smooth="yes"/>
      <point x="51" y="1318"/>
      <point x="51" y="1319"/>
    </contour>
    <contour>
      <point x="52" y="1319" type="curve"/>
      <point x="49" y="1316"/>
      <point x="47" y="1315"/>
      <point x="46" y="1315" type="curve" smooth="yes"/>
      <point x="45" y="1315"/>
      <point x="49" y="1320"/>
      <point x="50" y="1320" type="curve" smooth="yes"/>
      <point x="51" y="1320"/>
      <point x="52" y="1319"/>
    </contour>
  </outline>
</glyph>
<glyph name="uni0307" format="1">
  <advance width="398"/>
  <unicode hex="0307"/>
  <outline>
    <contour>
      <point x="201" y="1069" type="move" name="_top"/>
    </contour>
    <contour>
      <point x="202" y="1401" type="curve" smooth="yes"/>
      <point x="288" y="1401"/>
      <point x="333" y="1466"/>
      <point x="333" y="1542" type="curve" smooth="yes"/>
      <point x="333" y="1616"/>
      <point x="281" y="1683"/>
      <point x="202" y="1683" type="curve" smooth="yes"/>
      <point x="116" y="1683"/>
      <point x="71" y="1619"/>
      <point x="71" y="1542" type="curve" smooth="yes"/>
      <point x="71" y="1468"/>
      <point x="124" y="1401"/>
    </contour>
  </outline>
</glyph>
<glyph name="dblgravecmb" format="1">
  <advance width="1036"/>
  <unicode hex="030F"/>
  <outline>
    <contour>
      <point x="667" y="1069" type="move" name="_top"/>
    </contour>
    <contour>
      <point x="890" y="1315" type="curve"/>
      <point x="890" y="1315"/>
      <point x="886" y="1322"/>
      <point x="895" y="1319" type="curve"/>
      <point x="857" y="1352"/>
      <point x="654" y="1565"/>
      <point x="629" y="1588" type="curve" smooth="yes"/>
      <point x="608" y="1605"/>
      <point x="582" y="1623"/>
      <point x="551" y="1623" type="curve" smooth="yes"/>
      <point x="490" y="1623"/>
      <point x="458" y="1582"/>
      <point x="458" y="1540" type="curve" smooth="yes"/>
      <point x="458" y="1507"/>
      <point x="478" y="1469"/>
      <point x="522" y="1454" type="curve"/>
      <point x="535" y="1455"/>
      <point x="882" y="1315"/>
    </contour>
    <contour>
      <point x="485" y="1315" type="curve"/>
      <point x="485" y="1315"/>
      <point x="481" y="1320"/>
      <point x="489" y="1320" type="curve"/>
      <point x="449" y="1355"/>
      <point x="249" y="1566"/>
      <point x="224" y="1588" type="curve" smooth="yes"/>
      <point x="203" y="1605"/>
      <point x="177" y="1623"/>
      <point x="146" y="1623" type="curve" smooth="yes"/>
      <point x="85" y="1623"/>
      <point x="53" y="1582"/>
      <point x="53" y="1540" type="curve" smooth="yes"/>
      <point x="53" y="1507"/>
      <point x="73" y="1469"/>
      <point x="117" y="1454" type="curve"/>
      <point x="130" y="1455"/>
      <point x="477" y="1315"/>
    </contour>
    <contour>
      <point x="897" y="1321" type="curve" smooth="yes"/>
      <point x="898" y="1321"/>
      <point x="901" y="1316"/>
      <point x="901" y="1315" type="curve" smooth="yes"/>
      <point x="901" y="1314"/>
      <point x="899" y="1316"/>
      <point x="895" y="1319" type="curve" smooth="yes"/>
      <point x="895" y="1320"/>
      <point x="896" y="1321"/>
    </contour>
    <contour>
      <point x="895" y="1319" type="curve" smooth="yes"/>
      <point x="896" y="1319"/>
      <point x="896" y="1319"/>
      <point x="896" y="1318" type="curve" smooth="yes"/>
      <point x="896" y="1317"/>
      <point x="895" y="1316"/>
      <point x="895" y="1316" type="curve" smooth="yes"/>
      <point x="894" y="1316"/>
      <point x="894" y="1318"/>
    </contour>
    <contour>
      <point x="491" y="1321" type="curve" smooth="yes"/>
      <point x="492" y="1321"/>
      <point x="496" y="1317"/>
      <point x="496" y="1315" type="curve" smooth="yes"/>
      <point x="496" y="1314"/>
      <point x="494" y="1315"/>
      <point x="491" y="1318" type="curve"/>
      <point x="490" y="1317"/>
      <point x="490" y="1316"/>
      <point x="490" y="1316" type="curve" smooth="yes"/>
      <point x="490" y="1316"/>
      <point x="489" y="1318"/>
      <point x="490" y="1319" type="curve" smooth="yes"/>
      <point x="489" y="1320" type="line"/>
      <point x="490" y="1320" type="line" smooth="yes"/>
      <point x="490" y="1320"/>
      <point x="490" y="1321"/>
    </contour>
  </outline>
</glyph>
<glyph name="Sigma" format="1">
  <advance width="1161"/>
  <unicode hex="03A3"/>
  <outline>
    <contour>
      <point x="119" y="0" type="line"/>
      <point x="1083" y="0" type="line"/>
      <point x="1083" y="178" type="line"/>
      <point x="306" y="178" type="line"/>
      <point x="798" y="724" type="line"/>
      <point x="798" y="827" type="line"/>
      <point x="323" y="1289" type="line"/>
      <point x="1035" y="1289" type="line"/>
      <point x="1035" y="1466" type="line"/>
      <point x="119" y="1466" type="line"/>
      <point x="119" y="1290" type="line"/>
      <point x="619" y="761" type="line"/>
      <point x="119" y="197" type="line"/>
    </contour>
  </outline>
</glyph>
<glyph name="Omega" format="1">
  <advance width="1736"/>
  <unicode hex="03A9"/>
  <outline>
    <contour>
      <point x="103" y="0" type="line"/>
      <point x="785" y="0" type="line"/>
      <point x="784" y="100" type="line"/>
      <point x="491" y="198"/>
      <point x="327" y="499"/>
      <point x="327" y="763" type="curve" smooth="yes"/>
      <point x="327" y="1130"/>
      <point x="608" y="1308"/>
      <point x="868" y="1308" type="curve" smooth="yes"/>
      <point x="1129" y="1308"/>
      <point x="1409" y="1130"/>
      <point x="1409" y="763" type="curve" smooth="yes"/>
      <point x="1409" y="499"/>
      <point x="1244" y="198"/>
      <point x="952" y="100" type="curve"/>
      <point x="951" y="0" type="line"/>
      <point x="1634" y="0" type="line"/>
      <point x="1634" y="109" type="line"/>
      <point x="1222" y="109" type="line"/>
      <point x="1487" y="279"/>
      <point x="1608" y="545"/>
      <point x="1608" y="760" type="curve" smooth="yes"/>
      <point x="1608" y="1227"/>
      <point x="1233" y="1463"/>
      <point x="868" y="1463" type="curve" smooth="yes"/>
      <point x="503" y="1463"/>
      <point x="128" y="1227"/>
      <point x="128" y="760" type="curve" smooth="yes"/>
      <point x="128" y="545"/>
      <point x="249" y="279"/>
      <point x="514" y="109" type="curve"/>
      <point x="103" y="109" type="line"/>
    </contour>
  </outline>
</glyph>
<glyph name="pi" format="1">
  <advance width="1448"/>
  <unicode hex="03C0"/>
  <outline>
    <contour>
      <point x="1091" y="-23" type="curve" smooth="yes"/>
      <point x="1157" y="-23"/>
      <point x="1230" y="1"/>
      <point x="1303" y="46" type="curve"/>
      <point x="1303" y="134" type="line"/>
      <point x="1260" y="122"/>
      <point x="1223" y="115"/>
      <point x="1189" y="115" type="curve" smooth="yes"/>
      <point x="1185" y="115" type="line" smooth="yes"/>
      <point x="1060" y="115"/>
      <point x="993" y="200"/>
      <point x="993" y="411" type="curve" smooth="yes"/>
      <point x="993" y="523"/>
      <point x="1019" y="685"/>
      <point x="1060" y="891" type="curve"/>
      <point x="1300" y="891" type="line"/>
      <point x="1299" y="1050" type="line"/>
      <point x="474" y="1050" type="line" smooth="yes"/>
      <point x="233" y="1050"/>
      <point x="134" y="976"/>
      <point x="134" y="761" type="curve"/>
      <point x="257" y="761" type="line"/>
      <point x="270" y="836"/>
      <point x="310" y="891"/>
      <point x="391" y="891" type="curve" smooth="yes"/>
      <point x="527" y="891" type="line"/>
      <point x="431" y="372" type="line" smooth="yes"/>
      <point x="390" y="148"/>
      <point x="259" y="82"/>
      <point x="171" y="82" type="curve"/>
      <point x="171" y="0" type="line"/>
      <point x="522" y="0"/>
      <point x="553" y="90"/>
      <point x="574" y="308" type="curve" smooth="yes"/>
      <point x="632" y="891" type="line"/>
      <point x="978" y="891" type="line"/>
      <point x="915" y="667"/>
      <point x="861" y="439"/>
      <point x="861" y="283" type="curve" smooth="yes"/>
      <point x="861" y="80"/>
      <point x="956" y="-23"/>
    </contour>
  </outline>
</glyph>
<glyph name="quoteleft" format="1">
  <advance width="508"/>
  <unicode hex="2018"/>
  <outline>
    <contour>
      <point x="258" y="1003" type="curve" smooth="yes"/>
      <point x="344" y="1003"/>
      <point x="391" y="1087"/>
      <point x="391" y="1123" type="curve" smooth="yes"/>
      <point x="391" y="1213"/>
      <point x="355" y="1259"/>
      <point x="273" y="1259" type="curve" smooth="yes"/>
      <point x="265" y="1259" type="line"/>
      <point x="265" y="1367"/>
      <point x="314" y="1476"/>
      <point x="400" y="1476" type="curve"/>
      <point x="400" y="1535" type="line"/>
      <point x="249" y="1535"/>
      <point x="115" y="1373"/>
      <point x="115" y="1196" type="curve" smooth="yes"/>
      <point x="115" y="1060"/>
      <point x="163" y="1003"/>
    </contour>
  </outline>
</glyph>
<glyph name="quotedblleft" format="1">
  <advance width="1008"/>
  <unicode hex="201C"/>
  <outline>
    <contour>
      <point x="727" y="1003" type="curve" smooth="yes"/>
      <point x="840" y="1003"/>
      <point x="878" y="1088"/>
      <point x="878" y="1123" type="curve" smooth="yes"/>
      <point x="878" y="1213"/>
      <point x="843" y="1259"/>
      <point x="762" y="1259" type="curve" smooth="yes"/>
      <point x="754" y="1259" type="line"/>
      <point x="753" y="1370"/>
      <point x="804" y="1476"/>
      <point x="887" y="1476" type="curve"/>
      <point x="887" y="1535" type="line"/>
      <point x="736" y="1535"/>
      <point x="600" y="1367"/>
      <point x="600" y="1196" type="curve" smooth="yes"/>
      <point x="600" y="1087"/>
      <point x="650" y="1003"/>
    </contour>
    <contour>
      <point x="271" y="1003" type="curve" smooth="yes"/>
      <point x="354" y="1003"/>
      <point x="404" y="1082"/>
      <point x="404" y="1123" type="curve" smooth="yes"/>
      <point x="404" y="1213"/>
      <point x="367" y="1259"/>
      <point x="284" y="1259" type="curve" smooth="yes"/>
      <point x="276" y="1259" type="line"/>
      <point x="275" y="1370"/>
      <point x="325" y="1476"/>
      <point x="413" y="1476" type="curve"/>
      <point x="413" y="1535" type="line"/>
      <point x="255" y="1535"/>
      <point x="126" y="1365"/>
      <point x="126" y="1196" type="curve" smooth="yes"/>
      <point x="126" y="1060"/>
      <point x="174" y="1003"/>
    </contour>
  </outline>
</glyph>
<glyph name="quotedblright" format="1">
  <advance width="1015"/>
  <unicode hex="201D"/>
  <outline>
    <contour>
      <point x="614" y="1002" type="line"/>
      <point x="770" y="1003"/>
      <point x="901" y="1175"/>
      <point x="901" y="1341" type="curve" smooth="yes"/>
      <point x="901" y="1454"/>
      <point x="852" y="1534"/>
      <point x="778" y="1534" type="curve" smooth="yes"/>
      <point x="663" y="1534"/>
      <point x="623" y="1450"/>
      <point x="623" y="1414" type="curve" smooth="yes"/>
      <point x="623" y="1324"/>
      <point x="659" y="1278"/>
      <point x="741" y="1278" type="curve" smooth="yes"/>
      <point x="749" y="1278" type="line"/>
      <point x="750" y="1164"/>
      <point x="702" y="1061"/>
      <point x="614" y="1061" type="curve"/>
    </contour>
    <contour>
      <point x="138" y="1002" type="line"/>
      <point x="293" y="1003"/>
      <point x="428" y="1175"/>
      <point x="428" y="1341" type="curve" smooth="yes"/>
      <point x="428" y="1453"/>
      <point x="373" y="1534"/>
      <point x="301" y="1534" type="curve" smooth="yes"/>
      <point x="189" y="1534"/>
      <point x="147" y="1454"/>
      <point x="147" y="1414" type="curve" smooth="yes"/>
      <point x="147" y="1324"/>
      <point x="183" y="1278"/>
      <point x="264" y="1278" type="curve" smooth="yes"/>
      <point x="272" y="1278" type="line"/>
      <point x="273" y="1167"/>
      <point x="225" y="1061"/>
      <point x="138" y="1061" type="curve"/>
    </contour>
  </outline>
</glyph>
<glyph name="quotedblbase" format="1">
  <advance width="634"/>
  <unicode hex="201E"/>
  <outline>
    <contour>
      <point x="452" y="-259" type="curve" smooth="yes"/>
      <point x="452" y="-259"/>
      <point x="516" y="96"/>
      <point x="516" y="173" type="curve" smooth="yes"/>
      <point x="516" y="247"/>
      <point x="495" y="282"/>
      <point x="445" y="282" type="curve" smooth="yes"/>
      <point x="375" y="282"/>
      <point x="372" y="246"/>
      <point x="372" y="154" type="curve" smooth="yes"/>
      <point x="372" y="85"/>
      <point x="437" y="-256"/>
      <point x="439" y="-256" type="curve" smooth="yes"/>
      <point x="440" y="-256"/>
      <point x="435" y="-247"/>
      <point x="445" y="-242" type="curve"/>
      <point x="445" y="-243"/>
      <point x="453" y="-251"/>
    </contour>
    <contour>
      <point x="198" y="-262" type="curve" smooth="yes"/>
      <point x="198" y="-262"/>
      <point x="261" y="100"/>
      <point x="261" y="173" type="curve" smooth="yes"/>
      <point x="261" y="247"/>
      <point x="241" y="282"/>
      <point x="191" y="282" type="curve" smooth="yes"/>
      <point x="121" y="282"/>
      <point x="118" y="246"/>
      <point x="118" y="154" type="curve" smooth="yes"/>
      <point x="118" y="81"/>
      <point x="184" y="-252"/>
      <point x="184" y="-252" type="curve" smooth="yes"/>
      <point x="183" y="-245"/>
      <point x="188" y="-243"/>
      <point x="191" y="-242" type="curve"/>
      <point x="191" y="-242"/>
      <point x="198" y="-255"/>
    </contour>
  </outline>
</glyph>
<glyph name="guilsinglleft" format="1">
  <advance width="782"/>
  <unicode hex="2039"/>
  <outline>
    <contour>
      <point x="668" y="266" type="curve" smooth="yes"/>
      <point x="704" y="266"/>
      <point x="732" y="296"/>
      <point x="732" y="330" type="curve" smooth="yes"/>
      <point x="732" y="347"/>
      <point x="723" y="366"/>
      <point x="706" y="382" type="curve" smooth="yes"/>
      <point x="281" y="782" type="line"/>
      <point x="706" y="1182" type="line" smooth="yes"/>
      <point x="726" y="1200"/>
      <point x="731" y="1223"/>
      <point x="731" y="1234" type="curve" smooth="yes"/>
      <point x="731" y="1270"/>
      <point x="708" y="1299"/>
      <point x="676" y="1299" type="curve" smooth="yes"/>
      <point x="673" y="1299"/>
      <point x="670" y="1299"/>
      <point x="667" y="1298" type="curve"/>
      <point x="664" y="1299"/>
      <point x="661" y="1300"/>
      <point x="658" y="1300" type="curve" smooth="yes"/>
      <point x="646" y="1300"/>
      <point x="633" y="1291"/>
      <point x="617" y="1278" type="curve" smooth="yes"/>
      <point x="119" y="885" type="line"/>
      <point x="73" y="850"/>
      <point x="50" y="821"/>
      <point x="50" y="782" type="curve" smooth="yes"/>
      <point x="50" y="749"/>
      <point x="71" y="716"/>
      <point x="119" y="679" type="curve" smooth="yes"/>
      <point x="617" y="286" type="line" smooth="yes"/>
      <point x="635" y="272"/>
      <point x="652" y="266"/>
    </contour>
  </outline>
</glyph>
<glyph name="guilsinglright" format="1">
  <advance width="783"/>
  <unicode hex="203A"/>
  <outline>
    <contour>
      <point x="115" y="266" type="curve" smooth="yes"/>
      <point x="131" y="266"/>
      <point x="148" y="272"/>
      <point x="165" y="286" type="curve" smooth="yes"/>
      <point x="664" y="679" type="line" smooth="yes"/>
      <point x="713" y="717"/>
      <point x="732" y="748"/>
      <point x="732" y="784" type="curve" smooth="yes"/>
      <point x="732" y="822"/>
      <point x="709" y="851"/>
      <point x="664" y="885" type="curve" smooth="yes"/>
      <point x="165" y="1278" type="line" smooth="yes"/>
      <point x="150" y="1291"/>
      <point x="138" y="1300"/>
      <point x="125" y="1300" type="curve" smooth="yes"/>
      <point x="122" y="1300"/>
      <point x="118" y="1299"/>
      <point x="115" y="1298" type="curve"/>
      <point x="112" y="1299"/>
      <point x="109" y="1299"/>
      <point x="106" y="1299" type="curve" smooth="yes"/>
      <point x="74" y="1299"/>
      <point x="51" y="1270"/>
      <point x="51" y="1234" type="curve" smooth="yes"/>
      <point x="51" y="1223"/>
      <point x="56" y="1200"/>
      <point x="77" y="1182" type="curve"/>
      <point x="502" y="782" type="line"/>
      <point x="77" y="382" type="line" smooth="yes"/>
      <point x="60" y="366"/>
      <point x="51" y="347"/>
      <point x="51" y="330" type="curve" smooth="yes"/>
      <point x="51" y="296"/>
      <point x="78" y="266"/>
    </contour>
  </outline>
</glyph>
<glyph name="foursuperior" format="1">
  <advance width="1201"/>
  <unicode hex="2074"/>
  <outline>
    <contour>
      <point x="795" y="350" type="line"/>
      <point x="959" y="350" type="line"/>
      <point x="959" y="1054" type="line"/>
      <point x="795" y="1054" type="line"/>
      <point x="795" y="750" type="line"/>
      <point x="379" y="750" type="line"/>
      <point x="379" y="759" type="line"/>
      <point x="743" y="1466" type="line"/>
      <point x="598" y="1466" type="line"/>
      <point x="200" y="743" type="line"/>
      <point x="200" y="622" type="line"/>
      <point x="795" y="622" type="line"/>
    </contour>
  </outline>
</glyph>
<glyph name="Euro" format="1">
  <advance width="1357"/>
  <unicode hex="20AC"/>
  <outline>
    <contour>
      <point x="759" y="-20" type="curve" smooth="yes"/>
      <point x="1089" y="-20"/>
      <point x="1167" y="60"/>
      <point x="1206" y="322" type="curve" smooth="yes"/>
      <point x="1211" y="362"/>
      <point x="1214" y="374"/>
      <point x="1217" y="421" type="curve"/>
      <point x="1103" y="453" type="line"/>
      <point x="1092" y="296"/>
      <point x="1092" y="256"/>
      <point x="1046" y="194" type="curve" smooth="yes"/>
      <point x="1001" y="131"/>
      <point x="923" y="106"/>
      <point x="726" y="106" type="curve" smooth="yes"/>
      <point x="386" y="106"/>
      <point x="305" y="173"/>
      <point x="297" y="302" type="curve" smooth="yes"/>
      <point x="290" y="406"/>
      <point x="288" y="426"/>
      <point x="287" y="533" type="curve"/>
      <point x="870" y="533" type="line"/>
      <point x="890" y="623" type="line"/>
      <point x="287" y="623" type="line"/>
      <point x="287" y="825" type="line"/>
      <point x="870" y="825" type="line"/>
      <point x="890" y="914" type="line"/>
      <point x="288" y="914" type="line"/>
      <point x="290" y="1029"/>
      <point x="293" y="1056"/>
      <point x="297" y="1168" type="curve" smooth="yes"/>
      <point x="305" y="1345"/>
      <point x="438" y="1361"/>
      <point x="725" y="1361" type="curve" smooth="yes"/>
      <point x="884" y="1361"/>
      <point x="959" y="1360"/>
      <point x="1012" y="1310" type="curve" smooth="yes"/>
      <point x="1065" y="1261"/>
      <point x="1084" y="1228"/>
      <point x="1101" y="1036" type="curve"/>
      <point x="1216" y="1078" type="line"/>
      <point x="1213" y="1111"/>
      <point x="1210" y="1108"/>
      <point x="1206" y="1137" type="curve" smooth="yes"/>
      <point x="1161" y="1419"/>
      <point x="1058" y="1485"/>
      <point x="739" y="1485" type="curve" smooth="yes"/>
      <point x="260" y="1485"/>
      <point x="181" y="1401"/>
      <point x="149" y="1032" type="curve" smooth="yes"/>
      <point x="146" y="979"/>
      <point x="144" y="977"/>
      <point x="143" y="914" type="curve"/>
      <point x="-14" y="914" type="line"/>
      <point x="-34" y="825" type="line"/>
      <point x="140" y="825" type="line"/>
      <point x="140" y="623" type="line"/>
      <point x="-14" y="623" type="line"/>
      <point x="-34" y="533" type="line"/>
      <point x="143" y="533" type="line"/>
      <point x="145" y="484"/>
      <point x="147" y="493"/>
      <point x="150" y="450" type="curve" smooth="yes"/>
      <point x="184" y="114"/>
      <point x="260" y="-20"/>
    </contour>
  </outline>
</glyph>
<glyph name="estimated" format="1">
  <advance width="1192"/>
  <unicode hex="212E"/>
  <outline>
    <contour>
      <point x="348" y="601" type="line"/>
      <point x="363" y="863"/>
      <point x="475" y="1042"/>
      <point x="648" y="1042" type="curve" smooth="yes"/>
      <point x="857" y="1042"/>
      <point x="898" y="836"/>
      <point x="898" y="601" type="curve"/>
    </contour>
    <contour>
      <point x="660" y="-20" type="curve" smooth="yes"/>
      <point x="867" y="-20"/>
      <point x="1002" y="70"/>
      <point x="1102" y="188" type="curve"/>
      <point x="1050" y="239" type="line"/>
      <point x="952" y="134"/>
      <point x="840" y="53"/>
      <point x="660" y="53" type="curve" smooth="yes"/>
      <point x="430" y="53"/>
      <point x="347" y="245"/>
      <point x="346" y="521" type="curve"/>
      <point x="1110" y="521" type="line"/>
      <point x="1110" y="869"/>
      <point x="962" y="1102"/>
      <point x="642" y="1102" type="curve" smooth="yes"/>
      <point x="319" y="1102"/>
      <point x="89" y="861"/>
      <point x="89" y="541" type="curve" smooth="yes"/>
      <point x="89" y="221"/>
      <point x="277" y="-20"/>
    </contour>
  </outline>
</glyph>
<glyph name="product" format="1">
  <advance width="1314"/>
  <unicode hex="220F"/>
  <outline>
    <contour>
      <point x="306" y="1322" type="line"/>
      <point x="1008" y="1322" type="line"/>
      <point x="1008" y="32" type="line"/>
      <point x="1186" y="32" type="line"/>
      <point x="1186" y="1466" type="line"/>
      <point x="127" y="1466" type="line"/>
      <point x="127" y="32" type="line"/>
      <point x="306" y="32" type="line"/>
    </contour>
  </outline>
</glyph>
<glyph name="uni2219" format="1">
  <advance width="438"/>
  <unicode hex="2219"/>
  <outline>
    <contour>
      <point x="241" y="539" type="curve" smooth="yes"/>
      <point x="328" y="539"/>
      <point x="374" y="605"/>
      <point x="374" y="684" type="curve" smooth="yes"/>
      <point x="374" y="761"/>
      <point x="321" y="828"/>
      <point x="241" y="828" type="curve" smooth="yes"/>
      <point x="153" y="828"/>
      <point x="107" y="763"/>
      <point x="107" y="684" type="curve" smooth="yes"/>
      <point x="107" y="608"/>
      <point x="161" y="539"/>
    </contour>
  </outline>
</glyph>
<glyph name="approxequal" format="1">
  <advance width="1036"/>
  <unicode hex="2248"/>
  <outline>
    <contour>
      <point x="738" y="868" type="curve" smooth="yes"/>
      <point x="629" y="868"/>
      <point x="429" y="988"/>
      <point x="200" y="988" type="curve" smooth="yes"/>
      <point x="120" y="988"/>
      <point x="51" y="974"/>
      <point x="34" y="745" type="curve"/>
      <point x="145" y="745" type="line"/>
      <point x="144" y="830"/>
      <point x="178" y="859"/>
      <point x="237" y="859" type="curve" smooth="yes"/>
      <point x="352" y="859"/>
      <point x="553" y="747"/>
      <point x="782" y="738" type="curve" smooth="yes"/>
      <point x="787" y="738" type="line" smooth="yes"/>
      <point x="886" y="738"/>
      <point x="932" y="797"/>
      <point x="942" y="973" type="curve"/>
      <point x="828" y="973" type="line"/>
      <point x="823" y="894"/>
      <point x="791" y="868"/>
    </contour>
    <contour>
      <point x="794" y="550" type="curve" smooth="yes"/>
      <point x="685" y="550"/>
      <point x="485" y="670"/>
      <point x="256" y="670" type="curve" smooth="yes"/>
      <point x="176" y="670"/>
      <point x="106" y="656"/>
      <point x="90" y="427" type="curve"/>
      <point x="201" y="427" type="line"/>
      <point x="200" y="512"/>
      <point x="234" y="541"/>
      <point x="293" y="541" type="curve" smooth="yes"/>
      <point x="408" y="541"/>
      <point x="609" y="429"/>
      <point x="838" y="420" type="curve" smooth="yes"/>
      <point x="845" y="420" type="line" smooth="yes"/>
      <point x="942" y="420"/>
      <point x="987" y="480"/>
      <point x="998" y="655" type="curve"/>
      <point x="884" y="655" type="line"/>
      <point x="879" y="576"/>
      <point x="847" y="550"/>
    </contour>
  </outline>
</glyph>
<glyph name="uniFB01" format="1">
  <advance width="1198"/>
  <unicode hex="FB01"/>
  <outline>
    <contour>
      <point x="840" y="1521" type="line"/>
      <point x="840" y="1348" type="line"/>
      <point x="1037" y="1348" type="line"/>
      <point x="1037" y="1521" type="line"/>
    </contour>
    <contour>
      <point x="267" y="1097" type="curve"/>
      <point x="138" y="1097" type="line"/>
      <point x="138" y="984" type="line"/>
      <point x="267" y="984" type="line"/>
      <point x="267" y="0" type="line"/>
      <point x="464" y="0" type="line"/>
      <point x="464" y="984" type="line"/>
      <point x="840" y="984" type="line"/>
      <point x="840" y="0" type="line"/>
      <point x="1037" y="0" type="line"/>
      <point x="1037" y="1097" type="line"/>
      <point x="464" y="1097" type="line"/>
      <point x="464" y="1155"/>
      <point x="463" y="1200"/>
      <point x="463" y="1235" type="curve" smooth="yes"/>
      <point x="463" y="1359"/>
      <point x="472" y="1365"/>
      <point x="541" y="1365" type="curve" smooth="yes"/>
      <point x="564" y="1365" type="line" smooth="yes"/>
      <point x="597" y="1365"/>
      <point x="632" y="1364"/>
      <point x="668" y="1362" type="curve"/>
      <point x="668" y="1505" type="line"/>
      <point x="605" y="1517"/>
      <point x="549" y="1522"/>
      <point x="498" y="1522" type="curve" smooth="yes"/>
      <point x="276" y="1522"/>
      <point x="267" y="1416"/>
    </contour>
  </outline>
</glyph>
